<?xml version="1.0" encoding="UTF-8"?>
<svg width="125px" height="24px" viewBox="0 0 125 24" version="1.1" xmlns="http://www.w3.org/2000/svg" xmlns:xlink="http://www.w3.org/1999/xlink">
    <!-- Generator: Sketch 56.3 (81716) - https://sketch.com -->
    <title>Group 5</title>
    <desc>Created with Sketch.</desc>
    <g id="Page-1" stroke="none" stroke-width="1" fill="none" fill-rule="evenodd">
        <g id="home" transform="translate(-658.000000, -791.000000)" fill-rule="nonzero">
            <g id="Group-2" transform="translate(658.000000, 791.000000)">
                <g id="Group-5">
                    <g id="autentia-logo">
                        <g id="Group" fill="#5D8BFF">
                            <path d="M17.4925898,22.26 C17.273247,22.26 17.1087398,22.2058065 16.9442327,22.0432258 C16.6700542,21.7722581 16.6700542,21.2845161 16.9442327,21.0135484 L21.166582,16.8406452 C21.4407605,16.5696774 21.9342818,16.5696774 22.2084604,16.8406452 C22.4826389,17.1116129 22.4826389,17.5993548 22.2084604,17.8703226 L17.9861111,22.0432258 C17.8764397,22.2058065 17.7119326,22.26 17.4925898,22.26" id="Path"></path>
                            <path d="M2.30309959,7.2483871 C2.08375678,7.2483871 1.91924966,7.19419355 1.75474255,7.0316129 C1.48056402,6.76064516 1.48056402,6.27290323 1.75474255,6.00193548 L5.9770918,1.82903226 C6.25127033,1.55806452 6.74479167,1.55806452 7.01897019,1.82903226 C7.29314871,2.1 7.29314871,2.58774194 7.01897019,2.85870968 L2.85145664,7.0316129 C2.68694953,7.14 2.52244241,7.2483871 2.30309959,7.2483871" id="Path"></path>
                            <path d="M3.45464939,11.096129 L0.767699864,11.096129 C0.329014228,11.096129 8.81072992e-13,10.7709677 8.81072992e-13,10.3374194 C8.81072992e-13,9.90387097 0.329014228,9.57870968 0.767699864,9.57870968 L3.12563516,9.57870968 L12.7218835,0.203225806 C12.996062,-0.0677419355 13.4895833,-0.0677419355 13.7637619,0.203225806 C14.0379404,0.474193548 14.0379404,0.961935484 13.7637619,1.23290323 L4.00300644,10.8793548 C3.83849932,11.0419355 3.67399221,11.096129 3.45464939,11.096129" id="Path"></path>
                            <path d="M4.60619919,14.943871 L0.932206978,14.943871 C0.493521341,14.943871 0.164507114,14.6187097 0.164507114,14.1851613 C0.164507114,13.7516129 0.493521341,13.4264516 0.932206978,13.4264516 L4.33202066,13.4264516 L16.6152185,1.28709677 C16.889397,1.01612903 17.3829184,1.01612903 17.6570969,1.28709677 C17.9312754,1.55806452 17.9312754,2.04580645 17.6570969,2.31677419 L5.15455623,14.7270968 C4.99004912,14.8896774 4.82554201,14.943871 4.60619919,14.943871" id="Path"></path>
                            <path d="M6.96413449,22.6935484 C6.74479167,22.6935484 6.58028455,22.6393548 6.41577744,22.4767742 C6.14159892,22.2058065 6.14159892,21.7180645 6.41577744,21.4470968 L18.9183181,9.09096774 C19.0828252,8.9283871 19.2473323,8.87419355 19.4666751,8.87419355 L23.195503,8.87419355 C23.6341887,8.87419355 23.9632029,9.19935484 23.9632029,9.63290323 C23.9632029,10.0664516 23.6341887,10.3916129 23.195503,10.3916129 L19.7956894,10.3916129 L7.45765583,22.4767742 C7.34798442,22.5851613 7.1286416,22.6935484 6.96413449,22.6935484" id="Path"></path>
                            <path d="M10.8574695,23.8316129 C10.6381267,23.8316129 10.4736196,23.7774194 10.3091125,23.6148387 C10.0349339,23.343871 10.0349339,22.856129 10.3091125,22.5851613 L20.0698679,12.9387097 C20.234375,12.776129 20.3988821,12.7219355 20.6182249,12.7219355 L23.3051745,12.7219355 C23.7438601,12.7219355 24.0728743,13.0470968 24.0728743,13.4806452 C24.0728743,13.9141935 23.7438601,14.2393548 23.3051745,14.2393548 L20.9472392,14.2393548 L11.4058266,23.6148387 C11.2413194,23.7232258 11.0768123,23.8316129 10.8574695,23.8316129" id="Path"></path>
                            <path d="M10.8574695,23.8316129 C10.6381267,23.8316129 10.4736196,23.7774194 10.3091125,23.6148387 C10.0349339,23.343871 10.0349339,22.856129 10.3091125,22.5851613 L20.0698679,12.9387097 C20.234375,12.776129 20.3988821,12.7219355 20.6182249,12.7219355 L23.3051745,12.7219355 C23.7438601,12.7219355 24.0728743,13.0470968 24.0728743,13.4806452 C24.0728743,13.9141935 23.7438601,14.2393548 23.3051745,14.2393548 L20.9472392,14.2393548 L11.4058266,23.6148387 C11.2413194,23.7232258 11.0768123,23.8316129 10.8574695,23.8316129" id="Path"></path>
                            <path d="M5.75774898,18.8458065 L2.57727812,18.8458065 C2.13859248,18.8458065 1.80957825,18.5206452 1.80957825,18.0870968 C1.80957825,17.6535484 2.13859248,17.3283871 2.57727812,17.3283871 L5.48357046,17.3283871 L17.821604,5.13483871 C17.9861111,4.97225806 18.1506182,4.91806452 18.369961,4.91806452 L21.6052676,4.91806452 C22.0439533,4.91806452 22.3729675,5.24322581 22.3729675,5.67677419 C22.3729675,6.11032258 22.0439533,6.43548387 21.6052676,6.43548387 L18.6441396,6.43548387 L6.30610603,18.6290323 C6.14159892,18.7374194 5.9770918,18.8458065 5.75774898,18.8458065" id="Path"></path>
                        </g>
                        <path d="M105.455729,16.0345946 L105.455729,17.8508108 C105.455729,17.9416216 105.364583,18.0324324 105.273438,18.0324324 C104.544271,18.2140541 103.90625,18.3048649 103.359375,18.3048649 C101.992188,18.3048649 100.898438,17.9416216 100.169271,17.3059459 C99.4401042,16.5794595 98.984375,15.5805405 98.984375,14.2183784 L98.984375,8.40648649 L97.2526042,8.40648649 C97.1614583,8.40648649 97.0703125,8.31567568 97.0703125,8.22486486 L97.0703125,6.40864865 C97.0703125,6.31783784 97.1614583,6.22702703 97.2526042,6.22702703 L98.984375,6.22702703 L98.984375,3.32108108 C98.984375,3.23027027 99.0755208,3.13945946 99.1666667,3.13945946 L101.354167,3.13945946 C101.445313,3.13945946 101.536458,3.23027027 101.536458,3.32108108 L101.536458,6.22702703 L105,6.22702703 C105.091146,6.22702703 105.182292,6.31783784 105.182292,6.40864865 L105.182292,8.22486486 C105.182292,8.31567568 105.091146,8.40648649 105,8.40648649 L101.627604,8.40648649 L101.627604,13.9459459 C101.627604,14.6724324 101.809896,15.2172973 102.174479,15.4897297 C102.539063,15.7621622 103.177083,15.9437838 103.90625,15.9437838 C104.179688,15.9437838 104.635417,15.9437838 105.273438,15.852973 C105.364583,15.852973 105.455729,15.9437838 105.455729,16.0345946" id="Path" fill="#3366FF"></path>
                        <path d="M40.0130208,7.13513514 C40.9244792,7.95243243 41.3802083,9.22378378 41.3802083,10.7675676 L41.3802083,17.76 C41.3802083,17.8508108 41.2890625,17.9416216 41.1979167,17.9416216 L39.1927083,17.9416216 C39.1015625,17.9416216 39.0104167,17.8508108 39.0104167,17.76 L39.0104167,16.5794595 C38.0989583,17.6691892 36.8229167,18.1232432 35.1822917,18.1232432 C33.90625,18.1232432 32.9036458,17.8508108 32.1744792,17.2151351 C31.4453125,16.5794595 31.0807292,15.7621622 31.0807292,14.7632432 C31.0807292,13.7643243 31.4453125,12.947027 32.265625,12.3113514 C33.0859375,11.6756757 34.0885417,11.4032432 35.4557292,11.4032432 L38.828125,11.4032432 L38.828125,10.6767568 C38.828125,9.85945946 38.6458333,9.22378378 38.1901042,8.76972973 C37.734375,8.31567568 37.0963542,8.13405405 36.2760417,8.13405405 C35.1822917,8.13405405 34.0885417,8.67891892 33.0859375,9.76864865 C32.9947917,9.85945946 32.9036458,9.85945946 32.8125,9.76864865 L31.6276042,8.4972973 C31.5364583,8.40648649 31.5364583,8.31567568 31.6276042,8.22486486 C32.8125,6.59027027 34.453125,5.86378378 36.5494792,5.86378378 C38.0078125,5.86378378 39.1927083,6.31783784 40.0130208,7.13513514 M37.9166667,15.4897297 C38.5546875,14.9448649 38.828125,14.3091892 38.828125,13.4918919 L38.828125,13.3102703 L35.8203125,13.3102703 C34.453125,13.3102703 33.7239583,13.7643243 33.7239583,14.7632432 C33.7239583,15.2172973 33.90625,15.6713514 34.2708333,15.9437838 C34.6354167,16.2162162 35.1822917,16.3978378 35.7291667,16.3978378 C36.640625,16.2162162 37.2786458,16.0345946 37.9166667,15.4897297" id="Shape" fill="#3366FF"></path>
                        <path d="M55.5078125,12.947027 C55.5078125,14.4908108 55.0520833,15.7621622 54.0494792,16.7610811 C53.046875,17.6691892 51.8619792,18.2140541 50.4036458,18.2140541 C48.9453125,18.2140541 47.6692708,17.76 46.6666667,16.7610811 C45.6640625,15.852973 45.2083333,14.5816216 45.2083333,12.947027 L45.2083333,6.31783784 C45.2083333,6.22702703 45.2994792,6.13621622 45.390625,6.13621622 L47.4869792,6.13621622 C47.578125,6.13621622 47.6692708,6.22702703 47.6692708,6.31783784 L47.6692708,13.2194595 C47.6692708,14.0367568 47.9427083,14.6724324 48.3984375,15.2172973 C48.9453125,15.6713514 49.5833333,15.9437838 50.3125,15.9437838 C51.0416667,15.9437838 51.6796875,15.6713514 52.1354167,15.2172973 C52.5911458,14.7632432 52.8645833,14.0367568 52.8645833,13.2194595 L52.8645833,6.31783784 C52.8645833,6.22702703 52.9557292,6.13621622 53.046875,6.13621622 L55.234375,6.13621622 C55.3255208,6.13621622 55.4166667,6.22702703 55.4166667,6.31783784 L55.4166667,12.947027 L55.5078125,12.947027 Z" id="Path" fill="#3366FF"></path>
                        <path d="M66.4453125,16.0345946 L66.4453125,17.8508108 C66.4453125,17.9416216 66.3541667,18.0324324 66.2630208,18.0324324 C65.5338542,18.2140541 64.8958333,18.3048649 64.3489583,18.3048649 C62.9817708,18.3048649 61.8880208,17.9416216 61.1588542,17.3059459 C60.4296875,16.5794595 59.9739583,15.5805405 59.9739583,14.2183784 L59.9739583,8.40648649 L58.2421875,8.40648649 C58.1510417,8.40648649 58.0598958,8.31567568 58.0598958,8.22486486 L58.0598958,6.40864865 C58.0598958,6.31783784 58.1510417,6.22702703 58.2421875,6.22702703 L59.9739583,6.22702703 L59.9739583,3.32108108 C59.9739583,3.23027027 60.0651042,3.13945946 60.15625,3.13945946 L62.34375,3.13945946 C62.4348958,3.13945946 62.5260417,3.23027027 62.5260417,3.32108108 L62.5260417,6.22702703 L66.0807292,6.22702703 C66.171875,6.22702703 66.2630208,6.31783784 66.2630208,6.40864865 L66.2630208,8.22486486 C66.2630208,8.31567568 66.171875,8.40648649 66.0807292,8.40648649 L62.6171875,8.40648649 L62.6171875,13.9459459 C62.6171875,14.6724324 62.7994792,15.2172973 63.1640625,15.4897297 C63.5286458,15.7621622 64.1666667,15.9437838 64.8958333,15.9437838 C65.1692708,15.9437838 65.625,15.9437838 66.2630208,15.852973 C66.3541667,15.852973 66.4453125,15.9437838 66.4453125,16.0345946" id="Path" fill="#3366FF"></path>
                        <path d="M80.1171875,12.947027 L71.4583333,12.947027 C71.640625,13.9459459 72.0052083,14.5816216 72.734375,15.1264865 C73.4635417,15.6713514 74.2838542,15.9437838 75.2864583,15.9437838 C76.4713542,15.9437838 77.5651042,15.4897297 78.5677083,14.6724324 C78.6588542,14.5816216 78.75,14.5816216 78.8411458,14.6724324 L79.84375,16.1254054 C79.9348958,16.2162162 79.84375,16.307027 79.84375,16.3978378 C78.4765625,17.5783784 77.0182292,18.2140541 75.1953125,18.2140541 C73.3723958,18.2140541 71.8229167,17.6691892 70.6380208,16.4886486 C69.453125,15.3081081 68.8151042,13.8551351 68.8151042,12.1297297 C68.8151042,10.4043243 69.3619792,8.95135135 70.546875,7.77081081 C71.7317708,6.59027027 73.1901042,5.95459459 74.921875,5.95459459 C76.4713542,5.95459459 77.8385417,6.49945946 78.8411458,7.49837838 C79.84375,8.4972973 80.390625,9.95027027 80.390625,11.4940541 C80.390625,11.9481081 80.2994792,12.4021622 80.2083333,12.947027 C80.2083333,12.947027 80.2083333,12.947027 80.1171875,12.947027 M72.6432292,8.76972973 C72.0052083,9.31459459 71.640625,10.1318919 71.4583333,10.9491892 L77.9296875,10.9491892 C77.9296875,10.0410811 77.65625,9.22378378 77.0182292,8.76972973 C76.4713542,8.22486486 75.7421875,7.95243243 74.8307292,7.95243243 C74.0104167,8.04324324 73.28125,8.31567568 72.6432292,8.76972973" id="Shape" fill="#3366FF"></path>
                        <path d="M93.0598958,7.13513514 C93.8802083,7.95243243 94.2447917,9.13297297 94.2447917,10.4951351 L94.2447917,17.6691892 C94.2447917,17.76 94.1536458,17.8508108 94.0625,17.8508108 L91.875,17.8508108 C91.7838542,17.8508108 91.6927083,17.76 91.6927083,17.6691892 L91.6927083,10.8583784 C91.6927083,10.0410811 91.4192708,9.40540541 90.9635417,8.86054054 C90.5078125,8.31567568 89.8697917,8.13405405 89.0494792,8.13405405 C88.2291667,8.13405405 87.5911458,8.40648649 87.1354167,8.86054054 C86.5885417,9.40540541 86.40625,10.0410811 86.40625,10.8583784 L86.40625,17.6691892 C86.40625,17.76 86.3151042,17.8508108 86.2239583,17.8508108 L84.0364583,17.8508108 C83.9453125,17.8508108 83.8541667,17.76 83.8541667,17.6691892 L83.8541667,6.31783784 C83.8541667,6.22702703 83.9453125,6.13621622 84.0364583,6.13621622 L86.0416667,6.13621622 C86.1328125,6.13621622 86.2239583,6.22702703 86.2239583,6.31783784 L86.2239583,7.31675676 C87.1354167,6.31783784 88.3203125,5.86378378 89.7786458,5.86378378 C91.2369792,5.86378378 92.3307292,6.31783784 93.0598958,7.13513514" id="Path" fill="#3366FF"></path>
                        <path d="M111.106771,0.596756757 C111.471354,0.96 111.653646,1.32324324 111.653646,1.7772973 C111.653646,2.23135135 111.471354,2.59459459 111.106771,2.95783784 C110.742188,3.32108108 110.377604,3.41189189 109.921875,3.41189189 C109.466146,3.41189189 109.010417,3.23027027 108.645833,2.95783784 C108.28125,2.59459459 108.098958,2.23135135 108.098958,1.7772973 C108.098958,1.32324324 108.28125,0.96 108.645833,0.596756757 C109.010417,0.233513514 109.375,0.142702703 109.921875,0.142702703 C110.377604,0.0518918919 110.742188,0.233513514 111.106771,0.596756757 M110.924479,17.9416216 L108.736979,17.9416216 C108.645833,17.9416216 108.554688,17.8508108 108.554688,17.76 L108.554688,6.31783784 C108.554688,6.22702703 108.645833,6.13621622 108.736979,6.13621622 L110.924479,6.13621622 C111.015625,6.13621622 111.106771,6.22702703 111.106771,6.31783784 L111.106771,17.76 C111.106771,17.8508108 111.015625,17.9416216 110.924479,17.9416216" id="Shape" fill="#3366FF"></path>
                        <path d="M123.502604,7.13513514 C124.414063,7.95243243 124.869792,9.22378378 124.869792,10.7675676 L124.869792,17.76 C124.869792,17.8508108 124.778646,17.9416216 124.6875,17.9416216 L122.591146,17.9416216 C122.5,17.9416216 122.408854,17.8508108 122.408854,17.76 L122.408854,16.5794595 C121.497396,17.6691892 120.221354,18.1232432 118.580729,18.1232432 C117.304688,18.1232432 116.302083,17.8508108 115.572917,17.2151351 C114.84375,16.5794595 114.479167,15.7621622 114.479167,14.7632432 C114.479167,13.7643243 114.84375,12.947027 115.664063,12.3113514 C116.484375,11.6756757 117.486979,11.4032432 118.854167,11.4032432 L122.226563,11.4032432 L122.226563,10.6767568 C122.226563,9.85945946 122.044271,9.22378378 121.588542,8.76972973 C121.132813,8.31567568 120.494792,8.13405405 119.674479,8.13405405 C118.580729,8.13405405 117.486979,8.67891892 116.484375,9.76864865 C116.393229,9.85945946 116.302083,9.85945946 116.210938,9.76864865 L115.026042,8.4972973 C114.934896,8.40648649 114.934896,8.31567568 115.026042,8.22486486 C116.210938,6.59027027 117.851563,5.86378378 119.947917,5.86378378 C121.40625,5.86378378 122.591146,6.31783784 123.502604,7.13513514 M121.315104,15.4897297 C121.953125,14.9448649 122.226563,14.3091892 122.226563,13.4918919 L122.226563,13.3102703 L119.21875,13.3102703 C117.851563,13.3102703 117.122396,13.7643243 117.122396,14.7632432 C117.122396,15.2172973 117.304688,15.6713514 117.669271,15.9437838 C118.033854,16.2162162 118.580729,16.3978378 119.127604,16.3978378 C120.039063,16.2162162 120.768229,16.0345946 121.315104,15.4897297" id="Shape" fill="#3366FF"></path>
                    </g>
                </g>
            </g>
        </g>
    </g>
</svg>