<svg width="273" height="490" viewBox="0 0 273 490" fill="none" xmlns="http://www.w3.org/2000/svg">
<path d="M110.667 65.998C110.667 58.853 135.203 -0.574809 167.064 0.480875C211.263 1.94543 222.599 76.7201 220.576 84.0804C218.965 89.9415 211.201 92.0733 177.162 91.0346C126.036 89.4741 110.667 72.3969 110.667 65.998Z" fill="#140C49"/>
<path fill-rule="evenodd" clip-rule="evenodd" d="M170.182 79.2499C170.182 79.2499 163.454 79.4668 160.586 77.7574L169.824 84.0877L170.182 79.2499Z" fill="#CF3E83"/>
<path d="M168.969 30.6152C176.725 34.8894 188.937 42.7274 195.149 52.5058C194.062 60.9479 191.405 72.2692 185.176 76.79C181.747 79.2773 175.503 79.5839 170.18 79.2489L168.963 95.7401L152.115 89.6467C152.115 89.6467 153.785 70.3219 154.508 63.3313C151.017 59.8729 144.549 57.7036 144.538 51.8318C144.538 49.8045 145.626 46.2836 149.643 46.278C155.033 46.2723 154.269 53.3196 154.269 53.3196C159.717 55.6352 165.282 37.9988 168.969 30.6152H168.969Z" fill="#F9D0B5"/>
<path opacity="0.398182" fill-rule="evenodd" clip-rule="evenodd" d="M170.17 79.2494C170.17 79.2494 163.442 79.4664 160.575 77.757L169.813 84.0873L170.17 79.2494Z" fill="black"/>
<path fill-rule="evenodd" clip-rule="evenodd" d="M184.62 52.9785L188.47 63.1663L184.003 63.0686L184.62 52.9785Z" fill="#2437A8"/>
<path fill-rule="evenodd" clip-rule="evenodd" d="M180.52 53.4205C180.424 55.4558 179.328 57.0413 178.071 56.9624C176.814 56.8834 175.872 55.1695 175.969 53.1342C176.064 51.0989 177.161 49.5128 178.418 49.5918C179.675 49.6713 180.617 51.3851 180.52 53.4205Z" fill="#0D0B6D"/>
<path fill-rule="evenodd" clip-rule="evenodd" d="M192.325 53.0952C192.229 55.1305 191.132 56.716 189.875 56.6371C188.618 56.5581 187.676 54.8443 187.773 52.809C187.869 50.7737 188.965 49.1876 190.223 49.2671C191.48 49.3461 192.421 51.0599 192.325 53.0952Z" fill="#0D0B6D"/>
<path d="M110.19 452.552L122.334 452.265L123.679 467.027L124.999 484.043H94.5363C98.596 469.92 110.313 467.703 110.313 467.703L110.19 452.552ZM187.379 455.516L186.13 467.418C186.13 467.418 209.376 474.069 218.114 483.961L175.265 484.042L176.403 449.955L187.379 455.516Z" fill="#0D0B6D"/>
<path d="M111.805 448.564L123.652 453.106L123.585 467.703L110.219 467.027L111.805 448.564ZM176.151 452.544L187.665 457.538L187.566 467.418L175.797 466.946L176.151 452.544Z" fill="#FCBDA4"/>
<path d="M107.581 455.576C108.124 437.114 111.631 320.492 115.235 251.109C117.732 203.018 136.419 176.541 139.926 171.966H184.452C184.534 172.58 190.527 218.883 191.624 315.767C192.609 402.533 191.594 449.959 191.467 455.537L191.467 455.54L192.889 455.537L192.898 463.007L169.841 463.048L169.832 455.578L170.627 455.576L170.627 455.576L158.918 303.742L155.411 258.299L128.791 455.537L128.791 455.538L129.942 455.536L129.54 463.006L105.669 463.048L106.071 455.579L107.581 455.576L107.581 455.576Z" fill="#140C49"/>
<path opacity="0.398065" fill-rule="evenodd" clip-rule="evenodd" d="M155.411 258.301L160.202 213.847L158.917 303.741L155.411 258.301Z" fill="#0A0A0F"/>
<path fill-rule="evenodd" clip-rule="evenodd" d="M142.928 172.359L139.332 172.301C139.332 172.301 139.338 172.239 139.342 172.109C140.581 172.205 141.778 172.284 142.928 172.359Z" fill="#C83820"/>
<path d="M216.19 214.881L204.321 216.505L185.205 183.875L184.507 173.029L155.384 172.557L142.954 172.359H142.928C141.778 172.284 140.581 172.205 139.343 172.109C123.686 170.916 101.994 167.593 100.505 158.394C97.8049 141.732 118.233 109.398 120.647 105.65C120.798 105.417 120.876 105.292 120.876 105.292C124.3 99.9541 127.745 95.8029 130.96 93.5939C137.215 89.295 143.079 88.3518 148.651 88.3694L150.144 76.5632L172.878 79.987L171.64 89.8005C178.315 90.4989 182.857 91.9238 187.108 96.1828C200.757 109.858 201.761 161.075 201.761 161.075L216.19 214.881Z" fill="#FF5252"/>
<path fill-rule="evenodd" clip-rule="evenodd" d="M155.384 172.557V172.785C155.384 172.785 150.17 172.796 142.953 172.358L155.384 172.557Z" fill="#C83820"/>
<path opacity="0.201149" d="M184.089 172.897C185.758 149.76 197.312 144.868 188.987 118.92" stroke="black" stroke-width="1.80576"/>
<path fill-rule="evenodd" clip-rule="evenodd" d="M203.745 201.521L160.33 196.059C158.908 195.88 157.972 194.355 158.361 192.852L175.515 126.706C175.826 125.511 176.884 124.738 178.015 124.879L221.43 130.341C222.852 130.52 223.788 132.046 223.398 133.548L206.244 199.693C205.934 200.889 204.875 201.663 203.745 201.521Z" fill="#18181C"/>
<path d="M165.192 176.802C165.275 176.826 165.359 176.851 165.443 176.877C168.46 177.775 171.542 178.319 175.831 177.702C178.589 177.308 180.96 176.794 180.933 176.313C180.857 175.1 179.519 174.828 179.519 174.828L176.943 174.964L174.465 174.803C174.465 174.803 185.849 172.454 185.849 172.09C185.814 170.808 183.945 170.288 183.945 170.288C183.945 170.288 187.86 169.608 187.815 168.929C187.708 167.201 185.96 167.07 185.96 167.07C185.96 167.07 186.445 166.613 186.396 166.19C186.205 164.486 183.42 164.205 182.094 163.996C182.094 163.996 177.584 163.929 176.24 163.564C172.707 162.601 170.604 161.741 169.285 161.023L178.1 127.032C178.41 125.836 179.469 125.063 180.6 125.205L224.015 130.667C225.437 130.845 226.373 132.371 225.983 133.873L208.829 200.018C208.519 201.214 207.461 201.987 206.33 201.845L162.914 196.384C161.493 196.205 160.556 194.679 160.946 193.177L165.192 176.802Z" fill="#EFEFEF"/>
<path d="M215.984 214.91C218.712 218.414 222.035 222.771 222.519 223.808C223.359 225.609 224.912 234.523 224.838 236.285C224.764 238.045 219.924 245.959 219.924 245.959C216.921 245.156 218.882 241.069 218.882 241.069C218.882 241.069 216.193 243.552 215.075 243.51C204.543 243.118 205.107 237.299 205.357 236.57C205.916 234.933 208.727 236.805 208.727 236.805C208.727 236.805 203.322 224.837 204.623 216.464L215.984 214.91ZM183.945 170.288C183.945 170.288 185.813 170.808 185.849 172.09C185.849 172.454 174.465 174.804 174.465 174.804L176.943 174.964L179.518 174.828C179.518 174.828 180.857 175.1 180.933 176.314C180.96 176.794 178.589 177.309 175.83 177.702C171.542 178.319 168.459 177.775 165.443 176.877C165.19 176.799 164.945 176.731 164.709 176.663C161.604 175.775 160.22 175.609 156.226 173.235C154.455 172.182 151.844 170.094 150.755 169.036L153.632 157.413L157.6 155.932C157.6 155.932 159.442 155.145 162.552 154.519C164.505 154.126 166.411 154.282 168.426 154.044L167.281 158.623C167.152 158.724 167.004 159.068 166.893 159.2C166.978 159.277 167.063 159.365 167.161 159.462C167.983 160.282 169.54 161.738 176.24 163.564C177.583 163.929 182.094 163.996 182.094 163.996C183.42 164.205 186.205 164.486 186.396 166.191C186.445 166.613 185.96 167.07 185.96 167.07C185.96 167.07 187.708 167.201 187.814 168.929C187.859 169.609 183.945 170.288 183.945 170.288Z" fill="#F9D0B5"/>
<path opacity="0.148065" d="M210.878 220.833C210.878 220.833 212.355 226.926 217.427 228.824C219.2 229.488 218.758 237.325 223.104 236.388" stroke="black" stroke-width="1.80576"/>
<path fill-rule="evenodd" clip-rule="evenodd" d="M182.511 131.367C182.169 132.539 181.44 133.332 180.881 133.138C180.323 132.945 180.148 131.837 180.49 130.665C180.832 129.492 181.561 128.699 182.119 128.892C182.677 129.087 182.853 130.194 182.511 131.367Z" fill="#020101"/>
<path opacity="0.200498" d="M138.779 123.507L127.821 143.31L155.067 155.076" stroke="black" stroke-width="1.80576"/>
<path d="M272.71 485.928C272.71 487.757 222.796 489.241 161.224 489.241C99.6529 489.241 49.7394 487.757 49.7394 485.928C49.7394 484.098 99.6529 482.615 161.224 482.615C222.796 482.615 272.71 484.098 272.71 485.928Z" fill="#123BAB" fill-opacity="0.2"/>
<path d="M39.8388 365.597C39.8388 359.003 44.6198 353.657 50.5169 353.657H221.93C227.827 353.657 232.608 359.003 232.608 365.597C232.608 372.191 227.827 377.536 221.93 377.536H50.5169C44.6198 377.536 39.8388 372.191 39.8388 365.597Z" fill="#2962FF"/>
<path d="M10.9585 377.612C4.90649 377.612 0 372.249 0 365.635C0 359.02 4.90649 353.657 10.9585 353.657C17.0105 353.657 21.917 359.02 21.917 365.635C21.917 372.249 17.0105 377.612 10.9585 377.612Z" fill="#00B0FF"/>
</svg>
