<svg width="246" height="333" viewBox="0 0 246 333" fill="none" xmlns="http://www.w3.org/2000/svg">
<path d="M144.882 220.529C200.598 220.529 245.765 171.162 245.765 110.264C245.765 49.367 200.598 0 144.882 0C89.1666 0 44 49.367 44 110.264C44 171.162 89.1666 220.529 144.882 220.529Z" fill="white"/>
<path d="M150.665 138.358C164.505 138.358 175.725 126.095 175.725 110.967C175.725 95.8399 164.505 83.5767 150.665 83.5767C136.825 83.5767 125.605 95.8399 125.605 110.967C125.605 126.095 136.825 138.358 150.665 138.358Z" stroke="#00B0FF" stroke-width="9"/>
<path d="M150.666 144.678C157.957 144.678 164.657 141.884 169.943 137.24V110.966C169.943 122.584 161.295 132.036 150.666 132.036C140.037 132.036 131.389 122.584 131.389 110.966V137.24C136.675 141.884 143.376 144.678 150.666 144.678Z" fill="#0478ED"/>
<path d="M204.863 162.195L162.231 157.859V110.423C162.231 105.733 159.937 101.211 156.035 99.2602C147.457 94.962 139.099 101.7 139.099 110.57V164.315V169.961V199.459H107.292C99.3076 199.459 92.8345 206.534 92.8345 215.261V224.742H108.233C113.707 224.742 121.904 225.994 129.075 228.37C135.845 230.612 141.412 235.913 144.423 242.908C145.996 246.558 146.809 250.536 146.809 254.564V283.185C146.829 283.206 204.64 283.185 204.64 283.185V251.699C209.733 237.78 216.206 222.93 216.206 207.941V175.894C216.206 168.824 211.302 162.899 204.863 162.195Z" fill="#C5CEE0"/>
<path d="M108.257 110.966H85.1241" stroke="#00B0FF" stroke-width="6"/>
<path d="M111.59 92.948L90.2784 83.1211" stroke="#00B0FF" stroke-width="6"/>
<path d="M111.614 129.048L90.3174 138.913" stroke="#00B0FF" stroke-width="6"/>
<path d="M126.026 332.589C132.06 332.589 136.95 327.243 136.95 320.649C136.95 314.055 132.06 308.709 126.026 308.709C119.993 308.709 115.102 314.055 115.102 320.649C115.102 327.243 119.993 332.589 126.026 332.589Z" fill="#2962FF"/>
<path d="M69.481 332.589C75.5139 332.589 80.4046 327.243 80.4046 320.649C80.4046 314.055 75.5139 308.709 69.481 308.709C63.4481 308.709 58.5574 314.055 58.5574 320.649C58.5574 327.243 63.4481 332.589 69.481 332.589Z" fill="#2962FF"/>
<path d="M69.481 269.379C75.5139 269.379 80.4046 264.033 80.4046 257.439C80.4046 250.845 75.5139 245.5 69.481 245.5C63.4481 245.5 58.5574 250.845 58.5574 257.439C58.5574 264.033 63.4481 269.379 69.481 269.379Z" fill="#2962FF"/>
<path d="M126.026 269.379C132.06 269.379 136.95 264.033 136.95 257.439C136.95 250.845 132.06 245.5 126.026 245.5C119.993 245.5 115.102 250.845 115.102 257.439C115.102 264.033 119.993 269.379 126.026 269.379Z" fill="#2962FF"/>
<path d="M11.6507 332.589C17.6837 332.589 22.5744 327.243 22.5744 320.649C22.5744 314.055 17.6837 308.709 11.6507 308.709C5.61775 308.709 0.727051 314.055 0.727051 320.649C0.727051 327.243 5.61775 332.589 11.6507 332.589Z" fill="#2962FF"/>
<path d="M11.6507 269.379C17.6837 269.379 22.5744 264.033 22.5744 257.439C22.5744 250.845 17.6837 245.5 11.6507 245.5C5.61775 245.5 0.727051 250.845 0.727051 257.439C0.727051 264.033 5.61775 269.379 11.6507 269.379Z" fill="#2962FF"/>
</svg>
