<svg width="203" height="284" viewBox="0 0 203 284" fill="none" xmlns="http://www.w3.org/2000/svg">
<path d="M101.609 221.026C157.325 221.026 202.492 171.659 202.492 110.762C202.492 49.8644 157.325 0.497437 101.609 0.497437C45.8936 0.497437 0.727051 49.8644 0.727051 110.762C0.727051 171.659 45.8936 221.026 101.609 221.026Z" fill="white"/>
<path d="M107.392 138.855C121.233 138.855 132.452 126.592 132.452 111.465C132.452 96.3373 121.233 84.0742 107.392 84.0742C93.5519 84.0742 82.3322 96.3373 82.3322 111.465C82.3322 126.592 93.5519 138.855 107.392 138.855Z" stroke="#00B0FF" stroke-width="9"/>
<path d="M107.393 145.175C114.684 145.175 121.384 142.381 126.67 137.738V111.464C126.67 123.082 118.022 132.533 107.393 132.533C96.7639 132.533 88.1163 123.082 88.1163 111.464V137.738C93.402 142.381 100.103 145.175 107.393 145.175Z" fill="#0478ED"/>
<path d="M161.591 162.692L118.958 158.356V110.92C118.958 106.23 116.664 101.709 112.762 99.7577C104.184 95.4595 95.8258 102.198 95.8258 111.068V164.812V170.459V199.956H64.0191C56.0347 199.956 49.5615 207.031 49.5615 215.758V225.24H64.9598C70.4344 225.24 78.6309 226.491 85.8019 228.868C92.5719 231.11 98.139 236.411 101.15 243.406C102.723 247.055 103.537 251.033 103.537 255.061V283.682C103.556 283.703 161.367 283.682 161.367 283.682V252.196C166.46 238.277 172.933 223.428 172.933 208.439V176.392C172.933 169.321 168.029 163.396 161.591 162.692Z" fill="#C5CEE0"/>
<path d="M64.9842 111.464H41.8512" stroke="#00B0FF" stroke-width="6"/>
<path d="M68.3175 93.4455L47.0055 83.6185" stroke="#00B0FF" stroke-width="6"/>
<path d="M68.3406 129.546L47.0444 139.411" stroke="#00B0FF" stroke-width="6"/>
</svg>
