<svg width="180" height="175" viewBox="0 0 180 175" fill="none" xmlns="http://www.w3.org/2000/svg">
<path d="M98.3073 175C143.425 175 180 135.825 180 87.5C180 39.1751 143.425 0 98.3073 0C53.1897 0 16.6146 39.1751 16.6146 87.5C16.6146 135.825 53.1897 175 98.3073 175Z" fill="#00B0FF"/>
<path d="M39.1629 14.7507H156.237C159.742 14.7507 162.53 17.7955 162.53 21.4906V96.9298C162.53 100.684 159.687 103.67 156.237 103.67H39.1629C35.6578 103.67 32.8704 100.625 32.8704 96.9298V21.4906C32.8704 17.7659 35.713 14.7507 39.1629 14.7507Z" fill="#C5C6E3"/>
<path d="M39.6319 18.6232H155.796C157.203 18.6232 158.39 19.8352 158.39 21.4019V87.0269C158.39 88.5345 157.258 89.7465 155.796 89.7465H39.6319C38.2244 89.7465 37.0928 88.5345 37.0928 87.0269V21.4019C37.0376 19.8943 38.2244 18.6232 39.6319 18.6232Z" fill="#E8EAF7"/>
<path d="M119.752 121.998H75.621L81.1131 103.7H114.287L119.752 121.998Z" fill="#C5C6E3"/>
<path d="M65.4646 117.356H129.963C130.901 117.356 131.674 118.184 131.674 119.189V120.194C131.674 121.199 130.901 122.027 129.963 122.027H65.4646C64.5262 122.027 63.7534 121.199 63.7534 120.194V119.189C63.781 118.154 64.5262 117.356 65.4646 117.356Z" fill="#C5C6E3"/>
<path d="M97.1205 100.448C99.0258 100.448 100.57 98.7933 100.57 96.7526C100.57 94.7118 99.0258 93.0575 97.1205 93.0575C95.2152 93.0575 93.6707 94.7118 93.6707 96.7526C93.6707 98.7933 95.2152 100.448 97.1205 100.448Z" fill="#E8EAF7"/>
<path d="M54.0386 27.255H140.175V82.7111C140.175 83.6866 139.457 84.4256 138.574 84.4256H55.667C54.7563 84.4256 54.0662 83.6571 54.0662 82.7111C54.0386 82.7407 54.0386 27.255 54.0386 27.255Z" fill="white"/>
<path d="M115.446 31.2456H135.483C136.035 31.2456 136.476 31.689 136.476 32.3098V79.4593C136.476 80.0505 136.062 80.5235 135.483 80.5235H115.446C114.894 80.5235 114.453 80.0801 114.453 79.4593V32.3098C114.48 31.689 114.894 31.2456 115.446 31.2456Z" fill="#E8E8F7"/>
<path d="M58.7304 31.2456H109.788C110.34 31.2456 110.782 31.689 110.782 32.3098V79.4593C110.782 80.0505 110.368 80.5235 109.788 80.5235H58.7304C58.1784 80.5235 57.7369 80.0801 57.7369 79.4593V32.3098C57.7369 31.689 58.206 31.2456 58.7304 31.2456Z" fill="#EBDBCD"/>
<path d="M118.399 39.493H125.354C125.741 39.493 126.072 39.8478 126.072 40.2616C126.072 40.6755 125.741 41.0302 125.354 41.0302H118.399C118.013 41.0302 117.682 40.6755 117.682 40.2616C117.682 39.8478 117.958 39.493 118.399 39.493Z" fill="#C5C6E3"/>
<path d="M118.399 42.6859H132.613C132.999 42.6859 133.33 43.0406 133.33 43.4545C133.33 43.8683 132.999 44.2231 132.613 44.2231H118.399C118.013 44.2231 117.682 43.8683 117.682 43.4545C117.682 42.9815 117.958 42.6859 118.399 42.6859Z" fill="#C5C6E3"/>
<path d="M118.399 56.6388H132.613C132.999 56.6388 133.33 56.9935 133.33 57.4074C133.33 57.8212 132.999 58.176 132.613 58.176H118.399C118.013 58.176 117.682 57.8212 117.682 57.4074C117.682 56.9344 117.958 56.6388 118.399 56.6388Z" fill="#C5C6E3"/>
<path d="M118.399 53.4458H128.997C129.384 53.4458 129.715 53.8005 129.715 54.2144C129.715 54.6282 129.384 54.9829 128.997 54.9829H118.399C118.013 54.9829 117.682 54.6282 117.682 54.2144C117.682 53.8005 117.958 53.4458 118.399 53.4458Z" fill="#C5C6E3"/>
<path d="M118.399 71.2714H132.613C132.999 71.2714 133.33 71.6261 133.33 72.0399C133.33 72.4538 132.999 72.8085 132.613 72.8085H118.399C118.013 72.8085 117.682 72.4538 117.682 72.0399C117.682 71.6261 117.958 71.2714 118.399 71.2714Z" fill="#C5C6E3"/>
<path d="M118.399 68.0785H125.354C125.741 68.0785 126.072 68.4332 126.072 68.8471C126.072 69.2609 125.741 69.6156 125.354 69.6156H118.399C118.013 69.6156 117.682 69.2609 117.682 68.8471C117.682 68.4332 117.958 68.0785 118.399 68.0785Z" fill="#C5C6E3"/>
<path d="M118.399 74.4045H132.613C132.999 74.4045 133.33 74.7593 133.33 75.1732C133.33 75.587 132.999 75.9417 132.613 75.9417H118.399C118.013 75.9417 117.682 75.587 117.682 75.1732C117.682 74.7593 117.958 74.4045 118.399 74.4045Z" fill="#C5C6E3"/>
<path d="M119.614 66.8073C120.574 66.8073 121.352 65.9735 121.352 64.945C121.352 63.9164 120.574 63.0826 119.614 63.0826C118.653 63.0826 117.875 63.9164 117.875 64.945C117.875 65.9735 118.653 66.8073 119.614 66.8073Z" fill="#4E53BA"/>
<path d="M119.614 38.2221C120.574 38.2221 121.352 37.3883 121.352 36.3598C121.352 35.3312 120.574 34.4974 119.614 34.4974C118.653 34.4974 117.875 35.3312 117.875 36.3598C117.875 37.3883 118.653 38.2221 119.614 38.2221Z" fill="#4E53BA"/>
<path d="M119.614 52.1158C120.574 52.1158 121.352 51.282 121.352 50.2535C121.352 49.2249 120.574 48.3911 119.614 48.3911C118.653 48.3911 117.875 49.2249 117.875 50.2535C117.875 51.282 118.653 52.1158 119.614 52.1158Z" fill="#FF7A82"/>
<path d="M69.7148 150.967L69.1905 158.505C69.0801 160.19 70.9015 161.55 72.3918 161.432C74.2409 161.313 75.2345 159.865 75.3173 158.15L75.8417 150.612C75.9797 148.927 74.1307 147.568 72.6403 147.686C70.8188 147.774 69.8252 149.223 69.7148 150.967Z" fill="#FCB58A"/>
<path d="M92.2079 151.736L93.2842 159.214C93.5326 160.899 95.6026 161.757 97.0653 161.284C98.8041 160.722 99.4664 159.067 99.2456 157.352L98.1693 149.873C97.9209 148.188 95.8509 147.331 94.3882 147.804C92.5943 148.366 91.9871 150.051 92.2079 151.736Z" fill="#FCB58A"/>
<path d="M69.2456 70.798C66.6513 75.7051 65.0506 80.7304 64.9127 86.3766C64.7747 91.6975 65.8509 96.9594 70.2116 100.152C73.0818 102.28 76.0074 97.4323 73.1371 95.3039C70.2944 93.1756 70.1564 89.0962 70.3496 85.6375C70.5979 81.3808 71.8123 77.6266 73.7994 73.961C75.4829 70.7093 71.0119 67.5759 69.2456 70.798Z" fill="#F9D0B5"/>
<path d="M91.5457 73.5475C93.9468 76.8879 95.7131 80.376 96.5135 84.5737C97.1758 88.121 97.4242 91.4614 94.6643 94.0923C92.1252 96.6345 95.6578 100.98 98.1969 98.4377C99.908 96.8119 101.178 94.6835 101.868 92.3777C102.585 89.7468 102.392 87.1751 101.978 84.485C101.067 78.8685 98.8593 74.1683 95.6026 69.7046C93.4775 66.8077 89.3929 70.5914 91.5457 73.5475Z" fill="#F9D0B5"/>
<path d="M97.9441 59.5658C97.9441 59.5658 95.2247 44.5211 94.3182 41.7701C92.9173 37.5361 89.0442 35 83.6054 35C78.0567 35 74.2112 37.5791 72.7004 41.8131C71.1347 46.1545 69.0745 59.2434 69.0745 59.2434C68.8273 59.8452 69.2119 60.4685 69.9811 60.6404C71.7116 61.1562 75.3923 62.0804 83.6054 61.9944C90.9395 61.9084 94.7578 61.1562 96.6257 61.0058C97.4223 60.9628 98.0266 60.404 97.9991 59.7807C97.9991 59.7162 97.999 59.6517 97.9441 59.5658Z" fill="#140C49"/>
<path d="M80.5334 55.2786H86.5501V66.2456C86.5501 67.162 85.8325 67.9306 84.9769 67.9306H82.1066C81.2511 67.9306 80.5334 67.162 80.5334 66.2456V55.2786Z" fill="#F9D0B5"/>
<path d="M83.5694 57.6438C89.0719 57.6438 93.5326 52.866 93.5326 46.9723C93.5326 41.0787 89.0719 36.3009 83.5694 36.3009C78.0669 36.3009 73.6063 41.0787 73.6063 46.9723C73.6063 52.866 78.0669 57.6438 83.5694 57.6438Z" fill="#F9D0B5"/>
<path fill-rule="evenodd" clip-rule="evenodd" d="M83.2669 49L82 52.3528L83.47 52.3207L83.2669 49Z" fill="#2437A8"/>
<path fill-rule="evenodd" clip-rule="evenodd" d="M80.5662 47.1569C80.512 48.3027 79.8948 49.1952 79.1872 49.1508C78.4795 49.1064 77.9496 48.1415 78.0038 46.9958C78.0577 45.85 78.6752 44.9572 79.3828 45.0016C80.0902 45.0463 80.6204 46.0112 80.5662 47.1569Z" fill="#0D0B6D"/>
<path fill-rule="evenodd" clip-rule="evenodd" d="M88.5662 47.1569C88.512 48.3027 87.8948 49.1952 87.1872 49.1508C86.4795 49.1064 85.9496 48.1415 86.0038 46.9958C86.0577 45.85 86.6752 44.9572 87.3828 45.0016C88.0902 45.0463 88.6204 46.0112 88.5662 47.1569Z" fill="#0D0B6D"/>
<path d="M73.413 46.558C73.413 46.7058 73.4131 46.9127 73.4683 47.0605V47.1196C73.4683 47.3266 73.5235 47.4744 73.5787 47.6813C73.6339 47.8882 73.6338 48.0952 73.689 48.2725C74.4066 45.2869 76.8905 43.1585 79.7884 43.1585C80.1748 43.1585 80.506 43.2176 80.8647 43.2767C81.1407 43.3359 81.3891 43.395 81.6651 43.395C83.5142 43.395 85.0321 41.9169 85.2529 39.9659C85.1977 40.1728 85.1978 40.3798 85.1978 40.5571C85.1978 42.8333 86.9089 44.6661 89.034 44.6661C91.0764 45.1095 92.7598 46.7354 93.367 48.8637C93.505 48.4203 93.6154 47.8882 93.643 47.3857V47.3266C93.6982 47.1196 93.6982 46.9127 93.6982 46.7353V46.5875C93.6982 46.3215 93.6982 46.1441 93.6982 45.8781C93.6982 45.612 93.6982 45.4642 93.6982 45.2869C93.6982 45.2277 93.6982 45.1686 93.6982 45.1391C93.6982 44.9913 93.6982 44.8435 93.643 44.7252C93.5878 44.607 93.6431 44.607 93.5879 44.5183C93.5327 44.4 93.5326 44.2522 93.5326 44.1044L93.4775 43.8975C93.4223 43.7497 93.4222 43.6315 93.367 43.4837C93.3118 43.3359 93.3119 43.3654 93.3119 43.3359L93.2015 42.922C93.2015 42.8629 93.1462 42.8038 93.1462 42.7742C93.091 42.6264 93.0358 42.4786 93.0082 42.3604C93.0082 42.3012 93.0082 42.3012 92.953 42.2421C92.8978 42.0943 92.8426 41.9465 92.815 41.7987V41.7396C92.7598 41.5918 92.6771 41.3848 92.6219 41.237C91.7111 39.2565 90.3035 37.6011 88.5648 36.4778C88.0128 36.123 87.4333 35.8274 86.8261 35.6205H86.7709C86.5777 35.5614 86.3845 35.5023 86.2465 35.4136H86.1362C85.7222 35.2953 85.3358 35.2066 84.9218 35.1475H84.7838L84.3146 35.0884H84.1214C83.9282 35.0884 83.7075 35.0884 83.5143 35.0884C77.8841 35.0884 73.3578 39.9364 73.3578 45.9668C73.3578 46.1737 73.3578 46.3806 73.3578 46.558C73.413 46.5284 73.413 46.558 73.413 46.558Z" fill="#140C49"/>
<path d="M92.3404 92C96.5209 101.908 98.5093 108.119 99.6309 121.36C100.6 132.51 99.3759 147.448 99.1975 155.962C99.1975 156.235 99.1466 156.477 99.0191 156.689C98.6622 157.295 96.4954 157.871 95.8836 157.931C92.8756 158.204 90.0461 157.659 89.7657 156.386C88.1853 148.72 86.9618 140.994 86.146 133.147C85.4323 126.662 84.5655 119.391 84.1321 114.119C84.1321 113.906 84.0047 113.755 83.8263 113.755C83.6479 113.755 83.5204 113.906 83.5204 114.119C83.4184 114.997 83.342 119.997 83.2145 121.481C82.9087 125.693 82.3478 129.783 81.736 133.934C80.8183 140.54 78.6771 149.811 77.0711 156.083C76.9437 156.598 76.6378 157.022 76.2045 157.174C75.0828 157.386 73.9867 157.447 72.8396 157.386C71.4885 157.265 68.659 156.78 68.4805 155.992C66.4158 145.812 66.3393 126.329 69.3472 105.998C70.061 101.272 71.3611 96.757 73.1964 92.5151C76.2554 93.1817 79.3653 93.5453 82.5007 93.6665C85.8146 93.5756 89.1285 92.9999 92.3404 92Z" fill="#140C49"/>
<path d="M83.5693 57.6438C82.5206 57.6438 81.527 57.496 80.5334 57.1413V59.1218C81.527 59.4175 82.5758 59.4766 83.5693 59.3288C84.6181 59.2105 85.6117 58.9741 86.5501 58.4715V57.1117C85.6117 57.4369 84.5629 57.6438 83.5693 57.6438Z" fill="#E3996D" fill-opacity="0.5"/>
<path d="M71.8399 159.51C73.0266 159.569 74.1583 159.303 75.2346 158.86C75.6486 159.776 76.0074 160.781 76.2282 161.787C76.3662 162.792 76.8905 166.132 76.1177 166.812C75.4001 167.462 75.5106 167.314 74.517 167.787C73.1095 168.438 72.5298 168.083 70.5979 169.147C69.8803 169.561 66.8169 172.576 63.6982 172.901C61.1039 173.167 60.3864 171.778 60.0552 171.039C59.7792 170.271 60.3036 168.852 62.1251 167.403C63.9191 165.925 65.575 164.27 67.0929 162.378C67.8933 161.225 68.6108 159.895 69.08 158.535C69.1628 158.505 69.6872 159.451 71.8399 159.51Z" fill="#0D0B6D"/>
<path d="M96.6237 159.776C95.4921 159.835 94.3606 159.569 93.3118 159.066C92.7046 160.071 92.2631 161.195 92.0975 162.407C91.9043 163.412 91.5731 166.397 92.3458 167.018C93.1186 167.609 92.953 167.521 93.9465 167.994C95.3541 168.585 95.9337 168.289 97.8656 169.354C98.5832 169.767 101.647 172.842 104.765 173.108C106.642 173.256 108.077 171.984 108.353 171.245C108.629 170.477 108.684 168.969 106.366 167.314C104.048 165.629 101.316 162.998 100.929 162.259C100.405 161.136 99.2732 158.712 99.2732 158.712C99.2732 158.712 98.7212 159.717 96.6237 159.776Z" fill="#0D0B6D"/>
<path d="M91.8491 72.1876C91.8491 72.1876 92.2355 74.5229 92.2631 75.6758C92.2631 76.3853 92.2631 77.5086 92.2631 77.5086C92.2631 77.5086 92.7324 77.5086 93.036 77.4495C93.3119 77.3903 93.5603 77.3312 93.5603 77.3312C93.5603 77.3312 93.2843 76.267 92.9531 75.262C92.6495 74.2864 91.8491 72.1876 91.8491 72.1876Z" fill="#4E53BA"/>
<path d="M74.8757 72.0101C74.8757 72.0101 74.3514 73.636 74.103 74.7002C73.9926 75.2618 73.965 75.8235 73.965 76.3851C73.9098 76.6808 73.5786 77.6562 73.4407 78.0701C73.3855 78.2179 73.2475 78.277 73.1647 78.277C72.9715 78.2179 72.6402 78.1588 72.3918 78.0701C72.0054 77.9223 71.7294 77.8041 71.8398 77.8632C71.9502 77.9223 72.6954 76.5921 73.2474 75.5279C73.689 74.5524 74.8757 72.0101 74.8757 72.0101Z" fill="#4E53BA"/>
<path d="M92.9206 65.0493C90.8519 63.5785 88.5901 62.574 86.218 62.1435C85.8319 64.2959 85.0043 65.4439 83.1011 65.4439C81.1979 65.4439 80.5636 64.2242 80.2326 62C79.8464 62 78.6604 62.3229 78.3846 62.4305C74.9368 63.2915 73.5576 64.4753 71.8751 66.1256C69.2272 68.7085 66.6344 74.0538 66.0827 75.2736C65.9724 75.417 65.9724 75.6323 66.0827 75.7758C66.6896 77.0672 67.4895 78.1794 68.4549 79.0404C69.6409 80.0449 70.8546 80.7623 72.1785 81.3004C72.1785 81.3004 72.9784 79.3273 73.2542 78.6098C73.5852 77.6054 74.4402 74.3049 74.4402 74.3049C73.9713 75.704 73.6679 77.2466 73.5851 78.7892C73.53 80.8699 74.1093 83.2018 74.0541 84.6009C73.9162 87.0404 73.53 89.444 72.9784 91.7758C72.9232 92.0987 73.0336 92.3139 73.2542 92.4574C76.2883 93.3901 79.4052 93.9283 82.522 94C85.8871 94 89.2245 93.6771 92.5344 92.9955C92.7827 92.9237 92.9206 92.6726 92.8655 92.3856C92.8655 92.3856 92.8655 92.3857 92.8655 92.3139C92.4517 89.9821 92.0931 87.6502 91.9552 85.3184C91.6793 82.1256 91.9552 81.5157 91.9552 79.1838C91.8448 77.5336 91.6794 75.8116 91.4311 74.1614L91.9552 80.5471C93.4722 80.4753 94.9892 80.0448 96.3408 79.1838C97.2786 78.5022 98.0785 77.713 98.8508 76.7444C98.9887 76.565 99.0439 76.3139 98.9611 76.0628C98.2991 74.3408 95.3754 66.9507 92.9206 65.0493Z" fill="#FF5252"/>
<path d="M55.4185 23.2942H138.85C139.623 23.2942 140.23 23.9445 140.23 24.7722V27.2553H54.0662V24.7722C54.0386 23.9445 54.6458 23.2942 55.4185 23.2942Z" fill="#868AE0"/>
<path d="M43.1645 79.6957L42.8885 79.6366C42.171 79.4888 41.5086 79.9026 41.2326 80.6121L39.2456 86.5243C39.1904 86.6425 39.1903 86.6721 39.1903 86.7903C39.8527 87.3815 40.7083 87.7954 41.5638 87.9136C42.3366 88.0615 43.1369 88.0319 43.8821 87.7658C43.8821 87.7067 43.9374 87.618 43.9374 87.5589L44.4065 81.292C44.3513 80.5234 43.8821 79.8731 43.1645 79.6957Z" fill="#D7D7E6"/>
<path d="M43.275 70.7094C43.413 70.4433 43.6891 70.3547 43.9375 70.5025C44.0479 70.5616 44.0754 70.6207 44.1306 70.7094C44.4066 71.3597 44.8482 72.1874 45.1242 72.7195C45.6762 74.0793 45.897 75.6165 45.6486 77.065C45.3174 78.1883 44.8483 79.2525 44.1859 80.1393C44.1307 80.2575 44.0479 80.2871 43.9375 80.3462C43.4683 80.494 42.9991 80.494 42.53 80.4054C41.6192 80.1393 41.4811 79.5481 41.4811 79.5481C41.2051 78.3952 41.0671 77.2128 41.0671 76.0599C41.1775 74.9071 41.5364 73.7837 42.116 72.7786C42.5576 72.0692 42.9439 71.4189 43.275 70.7094Z" fill="#C7645D"/>
<path d="M35.7959 110.38L39.1629 87.2042C39.1629 87.086 39.2181 86.9382 39.2733 86.8495C40.5428 87.9728 42.3092 88.3275 43.8547 87.825C43.8547 87.9728 43.7996 88.1206 43.7996 88.2388L38.6662 111.06C38.5282 111.887 37.7554 112.42 37.0102 112.213C36.2375 112.006 35.6579 111.178 35.7959 110.38Z" fill="#2B31BA"/>
<path d="M33.9145 68.693L27.1152 69.2239L30.1112 113.243L36.9105 112.713L33.9145 68.693Z" fill="#DADAED"/>
<path d="M29.7998 74.9602L27.4875 75.1407L27.5217 75.642L29.8339 75.4614L29.7998 74.9602Z" fill="#989BD7"/>
<path d="M29.9561 80.1029L27.6434 80.2762L27.6762 80.7776L29.9889 80.6042L29.9561 80.1029Z" fill="#989BD7"/>
<path d="M30.2602 85.0713L27.9475 85.2446L27.9803 85.7459L30.293 85.5726L30.2602 85.0713Z" fill="#989BD7"/>
<path d="M30.7936 89.7417L28.4813 89.9222L28.5154 90.4235L30.8277 90.2429L30.7936 89.7417Z" fill="#989BD7"/>
<path d="M31.1249 94.6484L28.8126 94.829L28.8467 95.3302L31.159 95.1496L31.1249 94.6484Z" fill="#989BD7"/>
<path d="M31.4542 99.5857L29.142 99.7662L29.1761 100.267L31.4883 100.087L31.4542 99.5857Z" fill="#989BD7"/>
<path d="M31.8407 104.492L29.5283 104.673L29.5624 105.174L31.8748 104.993L31.8407 104.492Z" fill="#989BD7"/>
<path d="M26.889 83.7449L22.5667 84.5552L28.2525 119.35L32.5749 118.54L26.889 83.7449Z" fill="#FFADB2"/>
<path d="M26.9366 83.8051L22.5759 84.6032L23.2384 77.952L24.1767 77.8042L26.9366 83.8051Z" fill="#EBDBCD"/>
<path d="M23.5142 81.0263L24.1489 80.5829L24.6456 80.6125L25.2805 80.2578L24.1765 77.8042L23.2382 77.952L23.0173 80.6125L23.5142 81.0263Z" fill="#FF7A82"/>
<path d="M23.9007 96.2206H42.8059C43.2751 96.2206 43.6063 96.6344 43.6063 97.0779C43.6063 97.137 43.6063 97.137 43.6063 97.1961L41.0947 118.805C40.9843 119.81 40.184 120.579 39.2457 120.579H27.3505C26.4122 120.579 25.6118 119.81 25.5014 118.805L23.0451 97.1961C22.9899 96.7527 23.3211 96.2797 23.7627 96.2206C23.8179 96.2501 23.8455 96.2501 23.9007 96.2206Z" fill="#FF7A82"/>
<path d="M2.26318 121.347H45.1242C47.6633 121.347 49.7056 123.535 49.7056 126.255V126.55C49.7056 129.27 47.6633 131.457 45.1242 131.457H2.26318V121.347Z" fill="#F8E7D8"/>
<path d="M75.4829 120.608H0.331241C0.138048 120.608 0 120.756 0 120.963C0 121.17 0.138048 121.318 0.331241 121.318H44.9309C47.5252 121.318 49.6504 123.594 49.6504 126.373C49.6504 129.151 47.5252 131.427 44.9309 131.427H0.331241C0.138048 131.427 0 131.575 0 131.782C0 131.989 0.138048 132.137 0.331241 132.137H75.4829C78.0772 132.137 80.2024 129.861 80.2024 127.082V125.604C80.23 122.884 78.1048 120.608 75.4829 120.608Z" fill="#110580"/>
<path d="M36.5685 129.24H2.26318V128.797H36.5685C36.7065 128.797 36.8169 128.915 36.8169 129.063C36.7893 129.092 36.7065 129.24 36.5685 129.24Z" fill="#DEBCA7"/>
<path d="M40.2944 124.244H2.26318V123.801H40.2944C40.4324 123.801 40.5428 123.919 40.5428 124.067C40.5428 124.126 40.4324 124.244 40.2944 124.244Z" fill="#DEBCA7"/>
<path d="M44.4895 126.609H2.26318V126.166H44.4895C44.6275 126.166 44.7378 126.284 44.7378 126.432C44.7378 126.52 44.6551 126.609 44.4895 126.609Z" fill="#DEBCA7"/>
<path d="M167.746 133.556C161.454 132.551 155.133 131.427 148.951 130.008C137.249 127.377 134.158 146.976 145.777 149.578C148.51 150.169 151.297 150.79 154.057 151.351C159.356 146.119 163.937 140.118 167.746 133.556Z" fill="#FCB58A"/>
<path d="M132.143 128.944C138.326 129.21 143.569 132.639 148.592 136.394C152.18 139.084 155.713 133.053 152.125 130.363C146.164 125.9 139.761 122.116 132.419 121.82C128.086 121.554 127.783 128.737 132.143 128.944Z" fill="#FCB58A"/>
<path d="M142.99 150.701L135.096 150.642C130.101 150.583 125.934 146.001 125.823 140.414L125.768 138.492C125.658 132.935 129.632 128.383 134.655 128.412L142.548 128.471C147.516 128.53 151.711 133.112 151.821 138.699L151.877 140.621C151.987 146.208 148.013 150.76 142.99 150.701Z" fill="#FCB58A"/>
<path d="M113.514 161.165H104.738C98.7213 161.165 93.8364 156.14 93.4776 149.784L92.07 122.056C92.0148 121.051 92.7323 120.194 93.6431 120.135C93.6983 120.135 93.7536 120.135 93.7536 120.135H124.416C125.354 120.135 126.127 120.963 126.127 121.968C126.127 122.027 126.127 122.027 126.127 122.086L124.719 149.814C124.443 156.17 119.476 161.165 113.514 161.165Z" fill="#FF5856"/>
<path d="M125.851 126.432L125.603 130.689C129.908 131.664 132.64 136.157 131.757 140.769C131.04 144.464 128.169 147.213 124.664 147.509L124.416 151.766C130.984 151.499 136.09 145.587 135.842 138.611C135.676 132.433 131.481 127.378 125.851 126.432Z" fill="#FF5856"/>
<path d="M111.389 113.661C111.389 113.661 103.882 106.212 104.103 100.743C104.489 92.4071 111.472 89.2145 108.822 81.3218C107.553 77.5675 102.309 65.4772 102.309 65.4772C102.309 65.4772 111.003 74.7002 114.066 80.3463C116.854 85.5194 116.523 93.6486 113.514 97.5507C106.918 106.123 111.389 113.661 111.389 113.661Z" fill="#DCDCED"/>
<path d="M135.731 128.56C139.236 128.767 141.886 131.989 141.693 135.714L141.224 144.316C141.03 148.07 138.022 150.908 134.545 150.701C130.35 150.435 127.176 146.592 127.424 142.099L127.755 136.276C127.976 131.723 131.564 128.294 135.731 128.56Z" fill="#F0A173"/>
<path d="M134.462 128.175C137.967 128.382 140.616 131.605 140.423 135.3L139.954 143.902C139.761 147.656 136.753 150.494 133.275 150.287C129.08 150.021 125.906 146.178 126.155 141.685L126.486 135.861C126.651 131.368 130.239 127.939 134.462 128.175Z" fill="#FCB58A"/>
</svg>
