<?xml version="1.0" encoding="UTF-8"?>
<svg width="726px" height="388px" viewBox="0 0 726 388" version="1.1" xmlns="http://www.w3.org/2000/svg" xmlns:xlink="http://www.w3.org/1999/xlink">
    <title>Group</title>
    <g id="Page-1" stroke="none" stroke-width="1" fill="none" fill-rule="evenodd">
        <g id="Artboard" transform="translate(-142.000000, -108.000000)">
            <g id="Group" transform="translate(142.000000, 113.000000)">
                <path d="M31,274.5 C31,269.805733 34.7202256,266 39.3090209,266 L172.690979,266 C177.279774,266 181,269.805733 181,274.5 C181,279.194267 177.279774,283 172.690979,283 L39.3090209,283 C34.7202256,283 31,279.194267 31,274.5 Z" id="Shape-Copy-19" fill="#2962FF" fill-rule="nonzero"></path>
                <g id="Group-2" transform="translate(27.000000, 0.000000)">
                    <g id="Character-/-Girl-/-1">
                        <g id="Girl-/-Head-/-2" transform="translate(37.654424, -4.042878)">
                            <g id="Group-20" stroke-width="1" fill-rule="evenodd" transform="translate(21.458973, 18.597240)">
                                <path d="M0.000202443137,46.6534815 C0.000202443137,41.566732 19.0930196,-0.741585168 43.885016,0.00998590942 C78.2780806,1.05264422 87.0989329,54.28684 85.5243302,59.5268146 C84.2708023,63.6994693 78.2294942,65.2171658 51.742239,64.4777234 C11.9597332,63.3667404 0.000202443137,51.2089968 0.000202443137,46.6534815 Z" id="Hair" fill="#140C49" fill-rule="nonzero"></path>
                                <path d="M46.3110135,56.0877402 C46.3110135,56.0877402 41.0754291,56.2421781 38.8441009,55.0252718 L46.0328567,59.5318682 L46.3110135,56.0877402 Z" id="Fill-4" fill="#CF3E83"></path>
                                <g id="Face-color" transform="translate(26.317608, 21.427255)" fill="#F9D0B5" fill-rule="nonzero">
                                    <path d="M19.0499924,0.0361856951 C25.0846475,3.07910472 34.5880266,8.65916107 39.4211541,15.6206717 C38.5753506,21.6308794 36.5081989,29.6908489 31.6607705,32.9093124 C28.99257,34.6800931 24.1339347,34.8984085 19.992353,34.6598787 L19.0449191,46.4003973 L5.93470155,42.0623889 C5.93470155,42.0623889 7.23438649,28.304474 7.79717841,23.3276908 C5.08039151,20.8655779 0.0476551145,19.3211984 0.0391525027,15.1408623 C0.0391525027,13.6975547 0.885364816,11.1909702 4.01149174,11.1869273 C8.20570866,11.1828844 7.61093072,16.2000964 7.61093072,16.2000964 C11.85053,17.8486018 16.1807777,5.29278759 19.0499932,0.0361856951 L19.0499924,0.0361856951 Z" id="Face"></path>
                                </g>
                                <path d="M46.302349,56.087538 C46.302349,56.087538 41.0667646,56.241976 38.8354363,55.0250696 L46.0241921,59.5316661 L46.302349,56.087538 Z" id="Fill-16" fill="#000000" opacity="0.398181734"></path>
                            </g>
                            <polygon id="Fill-11" fill="#2437A8" fill-rule="evenodd" points="79.0048919 55.9816551 82.0010503 63.2345787 78.5246968 63.1650412"></polygon>
                            <path d="M75.8148334,56.2963123 C75.7399295,57.7452799 74.8868341,58.8740515 73.9086289,58.8178555 C72.9304236,58.7616595 72.1979843,57.5415188 72.2728883,56.0925512 C72.3473874,54.6435836 73.2008876,53.5144077 74.1790929,53.5706037 C75.1568932,53.627204 75.8897374,54.8473447 75.8148334,56.2963123" id="Fill-13" fill="#0D0B6D" fill-rule="evenodd"></path>
                            <path d="M85.0002859,56.0647766 C84.9257868,57.5137442 84.0722866,58.6425158 83.0940813,58.5863198 C82.116281,58.5301238 81.3834368,57.3099832 81.4583408,55.8610156 C81.5332447,54.412048 82.3863401,53.2828721 83.3645454,53.3394724 C84.3427506,53.3956684 85.0751899,54.6158091 85.0002859,56.0647766" id="Fill-15" fill="#0D0B6D" fill-rule="evenodd"></path>
                            <path d="M77.6720063,66.6392078 C77.6720063,66.6392078 75.4070725,67.3689474 73.1376849,64.8494256" id="Stroke-17" stroke="#1C295E" stroke-width="1.80576"></path>
                        </g>
                        <g id="Girl-/-Legs-/-4" transform="translate(1.619545, 115.626320)" fill-rule="evenodd" stroke-width="1">
                            <g id="Group-19" transform="translate(44.942376, 21.022967)">
                                <g id="Shoes" transform="translate(-0.000039, 197.907081)" fill="#0D0B6D" fill-rule="nonzero">
                                    <path d="M12.1808277,1.84924766 L21.630714,1.64458192 L22.6768837,12.1543059 L23.7040968,24.2682307 L1.150756e-14,24.2682307 C3.15904551,14.2139767 12.2764007,12.6354084 12.2764007,12.6354084 L12.1808277,1.84924766 Z M72.2445154,3.95923712 L71.2721976,12.4325566 C71.2721976,12.4325566 89.360784,17.167473 96.1606897,24.210104 L62.8183249,24.2680729 L63.703758,-1.14905513e-14 L72.2445154,3.95923712 Z"></path>
                                </g>
                                <g id="Skin-color" transform="translate(12.203141, 196.916562)" fill="#FCBDA4" fill-rule="nonzero">
                                    <path d="M1.23455135,-2.29811025e-14 L10.4526138,3.23403422 L10.400483,13.6258486 L-1.43844501e-13,13.1447461 L1.23455135,-2.29811025e-14 Z M51.3042971,2.83361496 L60.2636803,6.38943579 L60.1866689,13.4233912 L51.0290308,13.0874082 L51.3042971,2.83361496 Z" id="Skin"></path>
                                </g>
                                <g id="Pants" transform="translate(8.293531, 0.000000)" fill="#140C49" fill-rule="nonzero">
                                    <path d="M1.85715858,201.908908 C2.27973374,188.765345 5.00870042,105.739669 7.81270381,56.3438482 C9.75575967,22.1067002 24.2970843,3.25694575 27.026051,3.94346327e-05 L61.6732647,3.94346327e-05 C61.7364535,0.437369511 66.4001825,33.4011733 67.2536263,102.375895 C68.0197906,164.146698 67.2299305,197.91063 67.131198,201.881304 L67.1311349,201.883316 L68.2376735,201.88154 L68.2447823,207.1993 L50.3035048,207.228482 L50.2963961,201.910327 L50.9150135,201.909335 L50.914975,201.908908 L41.8043336,93.8146362 L39.0753669,61.4624636 L18.3612856,201.881304 L18.3611516,201.882216 L19.2570659,201.880751 L18.9442813,207.198512 L0.369141122,207.228482 L0.681925725,201.911116 L1.8571488,201.909195 L1.85715858,201.908908 Z"></path>
                                </g>
                                <polygon id="Fill-17" fill="#0A0A0F" opacity="0.398065476" points="47.3688981 61.4636072 51.0966429 29.8157371 50.09668 93.8138081"></polygon>
                            </g>
                        </g>
                        <g id="Girl-/-Body-/-3" transform="translate(41.298400, 68.324643)" fill-rule="evenodd" stroke-width="1">
                            <g id="Group-24" transform="translate(9.717271, 0.404288)">
                                <path d="M33.2014843,68.199678 L30.4037201,68.1588449 C30.4037201,68.1588449 30.407769,68.1147776 30.411413,68.0217914 C31.3750423,68.090116 32.3066856,68.1467163 33.2014843,68.199678" id="Fill-6" fill="#C83820"></path>
                                <g id="Sweater-color" fill="#FF5252" fill-rule="nonzero">
                                    <path d="M90.2093908,98.4727104 L80.9735299,99.6285693 L66.0984131,76.3981905 L65.5554606,68.6766972 L42.8943807,68.3411383 L33.2216476,68.1996376 L33.2014033,68.1996376 C32.3066046,68.1466759 31.3749613,68.0904799 30.4117369,68.0217509 C18.2287089,67.1727465 1.34900009,64.8072584 0.191025344,58.2577955 C-1.91033442,46.3959906 13.9855007,23.3762458 15.864173,20.7079461 C15.9815901,20.5421881 16.0419181,20.4532448 16.0419181,20.4532448 C18.7060698,16.6529392 21.3868218,13.6975951 23.889019,12.1249155 C28.755752,9.06445659 33.3188203,8.39293451 37.6551523,8.40546743 L38.816771,0.000323430265 L56.5066573,2.43777476 L55.5430279,9.42427276 C60.7377188,9.9215468 64.2719711,10.935905 67.579892,13.9680637 C78.2004639,23.7037189 78.9818944,60.1664384 78.9818944,60.1664384 L90.2093908,98.4727104 Z" id="Sweater"></path>
                                </g>
                                <path d="M42.8942593,68.341017 L42.8942593,68.5027322 C42.8942593,68.5027322 38.8372988,68.5108179 33.2215262,68.1995163 L42.8942593,68.341017 Z" id="Fill-10" fill="#C83820"></path>
                                <path d="M65.2302155,68.5830237 C66.5290906,52.1111247 75.5195904,48.628185 69.04141,30.1550611" id="Stroke-12" stroke="#000000" stroke-width="1.80576" opacity="0.201148624"></path>
                                <path d="M80.5253613,88.9608688 L46.7424604,85.0728328 C45.6359062,84.9450778 44.9075158,83.8591607 45.2107756,82.7894151 L58.5590663,35.6987772 C58.8003785,34.8477513 59.6239172,34.2971113 60.5041399,34.3981832 L94.2870409,38.2862193 C95.3931902,38.4135699 96.1219855,39.4998913 95.8183208,40.5696369 L82.470435,87.6598706 C82.2291228,88.5113008 81.4051792,89.0619408 80.5253613,88.9608688" id="Fill-14" fill="#18181C"></path>
                                <path d="M50.5262749,71.363005 C50.5905365,71.3801963 50.6555644,71.3979126 50.7213588,71.4163941 C53.0684845,72.0559775 55.4674357,72.4428809 58.8041035,72.0038244 C60.9504056,71.7236529 62.7954723,71.3573681 62.7748231,71.0153406 C62.7157098,70.1513775 61.6739374,69.9577236 61.6739374,69.9577236 L59.6697503,70.0543484 L57.7416819,69.9403393 C57.7416819,69.9403393 66.5997838,68.2673962 66.5997838,68.0082477 C66.5722515,67.0957701 65.1183049,66.7258467 65.1183049,66.7258467 C65.1183049,66.7258467 68.1642643,66.2419142 68.1294441,65.7579817 C68.0464424,64.5277338 66.6864294,64.4343433 66.6864294,64.4343433 C66.6864294,64.4343433 67.0637835,64.1092959 67.0257241,63.8085057 C66.876726,62.595238 64.7097747,62.3947112 63.6781244,62.2463376 C63.6781244,62.2463376 60.1681653,62.1982273 59.122749,61.9386745 C56.3733528,61.2531943 54.7370008,60.6409153 53.7104935,60.1295902 L60.5700554,35.9301511 C60.8113676,35.0791252 61.6353112,34.5284852 62.5151291,34.6295571 L96.2980301,38.5179975 C97.4041794,38.6449439 98.1329747,39.7312653 97.82931,40.8010109 L84.4814241,87.8912445 C84.2401119,88.7426747 83.4165732,89.2933147 82.5363505,89.1922428 L48.7534495,85.3042067 C47.6473002,85.1764517 46.9185049,84.0905346 47.2217647,83.020789 L50.5262749,71.363005 L50.5262749,71.363005 Z" id="iPad" fill="#EFEFEF" fill-rule="nonzero"></path>
                                <g id="Skin-color" transform="translate(39.273969, 54.983145)" fill="#F9D0B5" fill-rule="nonzero">
                                    <path d="M50.7749343,43.5096503 C52.8980273,46.0047565 55.4836463,49.1061359 55.8602968,49.8448084 C56.5137833,51.1268051 57.7223688,57.4729112 57.6648749,58.727012 C57.6073811,59.9803043 53.841129,65.6148638 53.841129,65.6148638 C51.5045303,65.0432008 53.0305466,62.1335413 53.0305466,62.1335413 C53.0305466,62.1335413 50.9376895,63.9006834 50.0675889,63.8707661 C41.8726907,63.5918075 42.3115874,59.4490701 42.5055279,58.9299645 C42.9407807,57.764807 45.1283812,59.0973397 45.1283812,59.0973397 C45.1283812,59.0973397 40.9226672,50.577474 41.9348866,44.6159736 L50.7749343,43.5096503 Z M25.8443363,11.7427018 C25.8443363,11.7427018 27.2982829,12.1126251 27.3258152,13.0251028 C27.3258152,13.2842513 18.4677132,14.9571943 18.4677132,14.9571943 L20.3957817,15.0712035 L22.3999687,14.9745787 C22.3999687,14.9745787 23.4417411,15.1682325 23.5008545,16.0321956 C23.5215037,16.3742231 21.676437,16.7405079 19.5301348,17.0206794 C16.193467,17.459736 13.7945159,17.0728325 11.4473901,16.4332492 C11.2502105,16.3778617 11.059914,16.3293472 10.8765005,16.2812369 C8.46013919,15.6485265 7.38354659,15.5308787 4.27563955,13.8405513 C2.89740667,13.0905974 0.865687344,11.6044353 0.0178554847,10.8508428 L2.25728147,2.57628377 L5.3449442,1.5223054 C5.3449442,1.5223054 6.77783672,0.961962464 9.19784199,0.516032987 C10.7173802,0.236265808 12.2004786,0.347040674 13.7686031,0.177644073 L12.8778533,3.43741685 C12.7774415,3.50978437 12.6624538,3.7547828 12.5758082,3.84857758 C12.6422095,3.90356072 12.7078011,3.96582105 12.7839197,4.03495427 C13.4240449,4.61915018 14.6354647,5.65574418 19.8487803,6.95552955 C20.8941967,7.21508234 24.4041558,7.26319259 24.4041558,7.26319259 C25.435806,7.41156623 27.6027574,7.61209299 27.7517555,8.82536077 C27.7898148,9.12615092 27.4124608,9.45119833 27.4124608,9.45119833 C27.4124608,9.45119833 28.7724738,9.54458882 28.8554755,10.7748367 C28.8902957,11.2587692 25.8443363,11.7427018 25.8443363,11.7427018 Z" id="Skin"></path>
                                </g>
                                <path d="M86.0755424,102.709809 C86.0755424,102.709809 87.2254194,107.047413 91.1718459,108.398947 C92.5521032,108.871559 92.207545,114.450731 95.5895601,113.783657" id="Stroke-4" stroke="#000000" stroke-width="1.80576" opacity="0.148065476"></path>
                                <path d="M64.0025193,39.0165248 C63.736509,39.8509749 63.1688585,40.415765 62.7344155,40.2779029 C62.2999725,40.1400407 62.1635259,39.3512751 62.4295361,38.5168251 C62.6955464,37.6819707 63.263197,37.1171806 63.6976399,37.2550427 C64.1320829,37.3933092 64.2685296,38.1816704 64.0025193,39.0165248" id="Fill-20" fill="#020101"></path>
                                <polyline id="Stroke-22" stroke="#000000" stroke-width="1.80576" opacity="0.200497582" points="29.973488 33.4212621 21.446583 47.5195873 42.647643 55.8960269"></polyline>
                            </g>
                        </g>
                    </g>
                    <path d="M185.204932,360.166774 C185.204932,361.469157 146.365466,362.525548 98.454466,362.525548 C50.5434664,362.525548 11.704,361.469157 11.704,360.166774 C11.704,358.863739 50.5434664,357.808 98.454466,357.808 C146.365466,357.808 185.204932,358.863739 185.204932,360.166774" id="Fill-141" fill-opacity="0.2" fill="#123BAB" fill-rule="nonzero"></path>
                </g>
                <g id="Group-4-Copy" transform="translate(0.000000, 58.000000)" fill-rule="nonzero">
                    <path d="M552.768,111.3552 C552.768,106.645912 556.483417,102.828 561.066282,102.828 L614.7179,102.828 C619.300764,102.828 623.016182,106.645912 623.016182,111.3552 C623.016182,116.064488 619.300764,119.8824 614.7179,119.8824 L561.066282,119.8824 C556.483417,119.8824 552.768,116.064488 552.768,111.3552 Z" id="Shape-Copy-9" fill="#2962FF" transform="translate(587.892091, 111.355200) rotate(135.000000) translate(-587.892091, -111.355200) "></path>
                    <path d="M547.752,172.341155 C547.752,167.631867 551.467417,163.813955 556.050282,163.813955 L687.52486,160.512 C692.107724,160.512 695.823142,164.329912 695.823142,169.0392 C695.823142,173.748488 692.107724,177.5664 687.52486,177.5664 L556.050282,180.868355 C551.467417,180.868355 547.752,177.050444 547.752,172.341155 Z" id="Shape-Copy-14" fill="#123BAB" transform="translate(621.787571, 170.690178) rotate(135.000000) translate(-621.787571, -170.690178) "></path>
                    <path d="M691.544,113.0272 C691.544,108.317912 695.259417,104.5 699.842282,104.5 L726.557226,105.194878 C731.14009,105.194878 734.855508,109.01279 734.855508,113.722078 C734.855508,118.431367 731.14009,122.249278 726.557226,122.249278 L699.842282,121.5544 C695.259417,121.5544 691.544,117.736488 691.544,113.0272 Z" id="Shape-Copy-10" fill="#00B0FF" transform="translate(713.199754, 113.374639) scale(-1, 1) rotate(90.000000) translate(-713.199754, -113.374639) "></path>
                    <path d="M602.141996,65.4251965 C602.141996,60.7159082 605.857414,56.8979965 610.440278,56.8979965 L724.694108,56.8979965 C729.276972,56.8979965 732.992389,60.7159082 732.992389,65.4251965 C732.992389,70.1344848 729.276972,73.9523965 724.694108,73.9523965 L610.440278,73.9523965 C605.857414,73.9523965 602.141996,70.1344848 602.141996,65.4251965 Z" id="Shape-Copy-11" fill="#2962FF" transform="translate(667.567193, 65.425196) scale(-1, 1) rotate(90.000000) translate(-667.567193, -65.425196) "></path>
                    <path d="M682.938833,135.037659 C682.938833,130.32837 686.65425,126.510459 691.237115,126.510459 L717.508358,126.236 C722.091223,126.236 725.80664,130.053912 725.80664,134.7632 C725.80664,139.472488 722.091223,143.2904 717.508358,143.2904 L691.237115,143.564859 C686.65425,143.564859 682.938833,139.746947 682.938833,135.037659 Z" id="Shape-Copy-21" fill="#123BAB" transform="translate(704.372737, 134.900429) scale(-1, 1) rotate(45.000000) translate(-704.372737, -134.900429) "></path>
                    <path d="M466.66,200.295088 C466.66,195.585799 470.375417,191.767888 474.958282,191.767888 L615.111885,191.444 C619.69475,191.444 623.410167,195.261912 623.410167,199.9712 C623.410167,204.680488 619.69475,208.4984 615.111885,208.4984 L474.958282,208.822288 C470.375417,208.822288 466.66,205.004376 466.66,200.295088 Z" id="Shape-Copy-15" fill="#00B0FF" transform="translate(545.035084, 200.133144) scale(-1, 1) rotate(45.000000) translate(-545.035084, -200.133144) "></path>
                    <path d="M278.56,250.1312 C278.56,245.421912 282.275417,241.604 286.858282,241.604 L494.189922,241.604 C498.772786,241.604 502.488204,245.421912 502.488204,250.1312 C502.488204,254.840488 498.772786,258.6584 494.189922,258.6584 L286.858282,258.6584 C282.275417,258.6584 278.56,254.840488 278.56,250.1312 Z" id="Shape-Copy" fill="#00B0FF"></path>
                    <path d="M253.5272,259.0544 C248.817912,259.0544 245,255.236488 245,250.5272 C245,245.817912 248.817912,242 253.5272,242 C258.236488,242 262.0544,245.817912 262.0544,250.5272 C262.0544,255.236488 258.236488,259.0544 253.5272,259.0544 Z" id="Shape-Copy-12" fill="#123BAB"></path>
                    <path d="M8.5272,225.0544 C3.81791168,225.0544 4.58300065e-13,221.236488 4.58300065e-13,216.5272 C4.58300065e-13,211.817912 3.81791168,208 8.5272,208 C13.2364883,208 17.0544,211.817912 17.0544,216.5272 C17.0544,221.236488 13.2364883,225.0544 8.5272,225.0544 Z" id="Shape-Copy-17" fill="#00B0FF"></path>
                </g>
                <circle id="Oval" fill="#FFFFFF" cx="298.5" cy="94.5" r="78.5"></circle>
                <g id="iconfinder__-50_2870386" transform="translate(252.000000, 75.000000)">
                    <circle id="Oval" stroke="#00B0FF" stroke-width="9" cx="51" cy="20" r="19.5"></circle>
                    <path d="M51,44 C56.673,44 61.887,42.011 66,38.705 L66,20 C66,28.271 59.271,35 51,35 C42.729,35 36,28.271 36,20 L36,38.705 C40.113,42.011 45.327,44 51,44 Z" id="Path" fill="#0478ED" fill-rule="nonzero"></path>
                    <path d="M93.174,56.471 L60,53.384 L60,19.613 C60,16.274 58.215,13.055 55.179,11.666 C48.504,8.606 42,13.403 42,19.718 L42,57.98 L42,62 L42,83 L17.25,83 C11.037,83 6,88.037 6,94.25 L6,101 L17.982,101 C22.242,101 28.62,101.891 34.2,103.583 C39.468,105.179 43.8,108.953 46.143,113.933 L46.143,113.933 C47.367,116.531 48,119.363 48,122.231 L48,142.607 C48.015,142.622 93,142.607 93,142.607 L93,120.191 C96.963,110.282 102,99.71 102,89.039 L102,66.224 C102,61.19 98.184,56.972 93.174,56.471 Z" id="Path" fill="#C5CEE0" fill-rule="nonzero"></path>
                    <line x1="18" y1="20" x2="0" y2="20" id="Path" stroke="#00B0FF" stroke-width="6"></line>
                    <line x1="20.595" y1="7.172" x2="4.011" y2="0.176" id="Path" stroke="#00B0FF" stroke-width="6"></line>
                    <line x1="20.613" y1="32.873" x2="4.041" y2="39.896" id="Path" stroke="#00B0FF" stroke-width="6"></line>
                </g>
                <g id="Group-2" transform="translate(220.000000, 189.000000)" fill="#2962FF">
                    <circle id="Oval" cx="97.5" cy="53.5" r="8.5"></circle>
                    <circle id="Oval" cx="53.5" cy="53.5" r="8.5"></circle>
                    <circle id="Oval" cx="53.5" cy="8.5" r="8.5"></circle>
                    <circle id="Oval" cx="97.5" cy="8.5" r="8.5"></circle>
                    <circle id="Oval" cx="8.5" cy="53.5" r="8.5"></circle>
                    <circle id="Oval" cx="8.5" cy="8.5" r="8.5"></circle>
                </g>
            </g>
        </g>
    </g>
</svg>