<svg width="639" height="670" viewBox="0 0 639 670" fill="none" xmlns="http://www.w3.org/2000/svg">
<path d="M71.9834 69H332.151C339.941 69 346.135 75.7662 346.135 83.9776V251.622C346.135 259.965 339.818 266.6 332.151 266.6H71.9834C64.1944 266.6 58 259.834 58 251.622V83.9776C58 75.7005 64.317 69 71.9834 69Z" fill="#C5C6E3"/>
<path d="M73.0234 77.599H331.167C334.295 77.599 336.932 80.2923 336.932 83.7739V229.608C336.932 232.958 334.418 235.652 331.167 235.652H73.0234C69.8955 235.652 67.3808 232.958 67.3808 229.608V83.7739C67.2582 80.4237 69.8955 77.599 73.0234 77.599Z" fill="#E8EAF7"/>
<path d="M251.08 307.336H153.012L165.216 266.673H238.937L251.08 307.336Z" fill="#C5C6E3"/>
<path d="M130.445 297.009H273.776C275.861 297.009 277.578 298.848 277.578 301.082V303.315C277.578 305.549 275.861 307.388 273.776 307.388H130.445C128.359 307.388 126.642 305.549 126.642 303.315V301.082C126.703 298.783 128.359 297.009 130.445 297.009Z" fill="#C5C6E3"/>
<path d="M105.057 96.785H296.471V220.022C296.471 222.19 294.877 223.832 292.914 223.832H108.676C106.652 223.832 105.119 222.124 105.119 220.022C105.057 220.088 105.057 96.785 105.057 96.785Z" fill="white"/>
<path d="M116.334 106H287.666C289.518 106 291 106.981 291 108.354V212.646C291 213.954 289.611 215 287.666 215H116.334C114.481 215 113 214.019 113 212.646V108.354C113 106.981 114.574 106 116.334 106Z" fill="#EBDBCD"/>
<path d="M108.091 87.9767H293.496C295.213 87.9767 296.562 89.4219 296.562 91.2613V96.7793H105.086V91.2613C105.024 89.4219 106.373 87.9767 108.091 87.9767Z" fill="#868AE0"/>
<path d="M374.685 211.504C369.385 231.004 364.185 251.004 355.185 269.104C352.785 273.904 348.386 286.204 341.486 285.804C334.786 285.304 329.086 281.004 326.086 275.204C323.186 269.504 315.086 267.804 309.786 270.904C303.886 274.404 302.586 281.504 305.486 287.204C310.886 298.004 321.286 305.404 332.786 308.404C348.186 312.404 360.286 306.104 368.886 293.404C383.886 271.104 390.786 243.604 397.786 217.904C401.786 202.904 378.685 196.604 374.685 211.504Z" fill="#F9D0B5"/>
<path d="M323.607 296.9H312.707C305.307 296.9 299.207 291.1 298.807 283.7L297.007 251.6C296.907 250.4 297.907 249.4 299.107 249.4H337.107C338.307 249.4 339.307 250.4 339.207 251.6L337.407 283.7C337.107 291.1 331.007 296.9 323.607 296.9Z" fill="#FF5856"/>
<path d="M338.907 256.7L338.606 261.6C343.106 262.5 346.407 266.5 346.407 271.3C346.407 276.5 342.407 280.6 337.407 281.1L337.106 286C345.006 285.7 351.307 279.2 351.307 271.3C351.307 263.9 345.907 257.8 338.907 256.7Z" fill="#FF5856"/>
<path d="M321.007 241.9C321.007 241.9 311.707 233.3 312.007 226.9C312.507 217.2 321.107 213.6 317.807 204.4C316.207 200.1 309.707 186 309.707 186C309.707 186 320.507 196.6 324.307 203.2C327.807 209.1 327.406 218.6 323.606 223.1C315.406 233.2 321.007 241.9 321.007 241.9Z" fill="white"/>
<path d="M460.7 576.1H399.4C397.4 576.1 395.7 574.5 395.7 572.4V569.5C395.7 567.5 397.3 565.8 399.4 565.8H460.7C462.7 565.8 464.4 567.4 464.4 569.5V572.4C464.3 574.5 462.6 576.1 460.7 576.1Z" fill="#B7B7C4"/>
<path d="M439.4 403.5H420.5V566H439.4V403.5Z" fill="#735639"/>
<path d="M446.5 127L463 125.4L466.3 157.8C466.3 157.8 461.7 159.4 456.8 159.6C451.9 159.9 447.3 159.6 447.3 159.6L446.5 127Z" fill="#0C0454"/>
<path d="M384.437 74.838C379.073 86.6163 366.5 130 366.5 130C366.5 140.5 370.007 141.764 371 142.5C374.079 144.814 378.576 150.346 392.881 155.183C399.834 157.497 416.821 160.547 424.57 159.916C425.96 159.811 427.053 158.444 427.053 158.444L435 41.0803C401.523 39.2925 387.616 67.8971 384.437 74.838Z" fill="#140C49"/>
<path d="M435.2 145.2C463.2 145.2 486 123.8 486 97.3C486 70.9 463.3 49.4 435.2 49.4C407.1 49.4 384.4 70.8 384.4 97.3C384.4 123.8 407.1 145.2 435.2 145.2Z" fill="#F9D0B5"/>
<path fill-rule="evenodd" clip-rule="evenodd" d="M409.757 98.9904L402 108.851L408.922 109.896L409.757 98.9904Z" fill="#2437A8"/>
<path d="M458 139.959C457.223 119.914 453.146 94.4242 453.146 93.6818C453.146 93.6818 451.787 84.8788 445.767 78.8333C443.922 76.9242 438.874 74.803 438 73C438.68 75.8636 444.206 84.8349 445.767 86.7879C451.107 93.4697 448.194 109.061 448.194 109.061C447.223 124.439 448.098 125.889 451.592 143C453.437 142.364 456.447 140.808 458 139.959Z" fill="#E3996D"/>
<path d="M377.4 476.9C379 486.2 380.9 495.4 383.2 504.5C387.3 520.6 413.6 513.8 409.5 497.6C407.1 488.5 405.3 479.2 403.7 470C402.5 463.1 393.4 459.3 386.9 461C379.2 463 376.3 470 377.4 476.9Z" fill="#E3996D"/>
<path d="M470.7 287.2C470.7 287.2 478.5 306.7 478.5 308.4C478.5 310.2 442.2 315.3 427.4 314.4C416 313.7 390 309.6 391.5 307.1C393 304.6 400.8 285.2 400.8 285.2C400.8 285.2 419.7 290 435 289.5C450.3 289.2 470.7 287.2 470.7 287.2Z" fill="#FF5252"/>
<path d="M391.4 307.2C391.4 307.2 401.9 310.7 408 311.5C433.9 315.2 450.7 313.1 450.7 313.1C450.7 313.1 373.7 355.2 371.2 360.7C368.7 366.2 393 385.2 400.1 406.6C406.4 425.6 410.7 472.9 411.5 483.1C411.6 484.3 410.9 485.5 409.8 486C407.3 487.2 402.1 489.2 394.3 490.6C382.8 492.7 375.4 494.8 375.2 492.2C375 489.6 332.3 410.3 330.7 407.7C329.1 405.1 304.6 366.9 303.6 357.1C300.5 327.9 391.4 307.2 391.4 307.2Z" fill="#140C49"/>
<path d="M418.2 166.4C418.2 166.4 397.4 170.6 388.2 178.3C380 185.2 364.9 214.5 361.8 220.8C361.4 221.5 361.6 222.4 362.1 223C364.1 225 369.1 229.7 373.7 232C379.6 235.1 391.3 237.4 391.3 237.4L394 219.6C394 219.6 387.5 231.4 391.8 244C394.3 251.4 396.2 261.2 396.6 266.1C396.8 268.8 396.2 284.4 396.2 284.4C396.2 284.4 412 288.5 429.1 289.7C446.1 290.9 475 285.4 475 285.4C475 285.4 473.6 249.3 474.5 242.8C476.3 229.7 472.5 220.2 472.5 220.2L477.5 240.1C477.5 240.1 494.6 242.3 497.9 240.6C501 239 506.5 234.3 508.8 232.3C509.5 231.7 509.8 230.7 509.6 229.8C508 223.1 500.5 195.7 488.2 182C481.9 175 458.6 167.8 453.2 167.8C447.6 167.6 418.2 166.4 418.2 166.4Z" fill="#FF5252"/>
<path d="M383.2 506.2C383.2 506.2 393.1 508 397.4 506.6C404.1 504.4 410.7 499.2 410.7 499.2C410.7 499.2 419.1 508.2 421.3 510.3C423.6 512.5 426.5 513.9 428.8 517.9C431.1 522 431.3 533.3 415.7 543.8C410.1 547.7 403 572.3 389.2 577.2C379.9 580.5 372.5 581.5 366.3 578.6C359.9 575.7 358.3 568.7 371.1 559.1C384 549.6 381 538.5 382.4 531.5C383.8 524.7 383.2 506.2 383.2 506.2Z" fill="#0D0B6D"/>
<path d="M278.4 498.2C277.1 508.5 275.7 518.8 274.4 529.2C273.5 536.1 281.3 542.1 288.1 542.1C296.2 542.1 300.8 536.2 301.8 529.2C303.1 518.9 304.5 508.6 305.8 498.2C306.7 491.3 298.9 485.3 292.1 485.3C283.9 485.3 279.3 491.3 278.4 498.2Z" fill="#FCB58A"/>
<path d="M339.1 264.3C346.9 265.9 353 271 358.6 276.4C362.7 280.3 368.3 273.9 364.2 269.9C357.4 263.4 350 257.6 340.7 255.8C335.3 254.7 333.6 263.2 339.1 264.3Z" fill="#F9D0B5"/>
<path d="M450 139.8L418.2 139.6C418.2 139.6 420.6 169.9 420.6 170.1C420.6 175.5 427.7 179.8 436.5 179.8C445.3 179.8 452.4 175.5 452.4 170.1C452.4 170 450 139.8 450 139.8Z" fill="#F9D0B5"/>
<path d="M435.2 145.1C429.3 145.1 423.6 144.1 418.4 142.4L418.8 148.5C422.4 150.2 428.1 151.4 433.8 151.8C438.8 152.1 446 152.3 450.8 150.9L450.3 143C445.4 144.4 440.4 145.1 435.2 145.1Z" fill="#E3996D"/>
<path d="M479 308.3C479 308.3 492.9 323.6 495.4 334.3C497.9 345 499.5 361.3 495.9 370.8C492.3 380.3 481 394 460.4 395.2C426.4 397.2 355.6 384.9 352.5 384.9C349.4 384.9 350.6 405.6 340 434.6C330.5 460.3 313.5 503.1 309.9 512.1C309.5 513.1 308.5 513.8 307.4 513.9C303.7 514.1 294.9 514.3 285.9 512.9C279.6 511.9 275 509.3 272.5 507.7C271.3 506.9 270.7 505.5 270.9 504.2C272 494.3 276.8 453 279.7 436.1C282.8 418.3 285.1 349.5 296.5 335.6C306.4 323.4 310 322.1 321.2 318.6C331.3 315.5 438.7 314.5 438.7 314.5L479 308.3Z" fill="#140C49"/>
<path d="M271.9 534.1C268.6 540.2 262.2 548.6 256.9 552.1C244.4 560.5 228.5 571.8 226.2 574.1C223.8 576.5 218.5 586.6 226.7 592C232.6 595.9 249.6 597.4 271 586.8C287.1 578.8 295.2 577.1 301.1 574.9C310.9 571.3 308.7 560.6 306.7 555.4C305.1 551.3 304.7 550.5 303.6 539.9C303.3 537.6 302.4 528.3 302.4 528.3C302.4 528.3 294.1 531.1 285 530C278.3 529.1 274.6 524.7 274.6 524.7C274.6 524.7 273 532 271.9 534.1Z" fill="#0D0B6D"/>
<path d="M490.3 407.6H369.8C367.8 407.6 366.1 406 366.1 403.9V391.9C366.1 389.9 367.7 388.2 369.8 388.2H490.3C492.3 388.2 494 389.8 494 391.9V403.9C493.9 406 492.3 407.6 490.3 407.6Z" fill="#AB8868"/>
<path d="M482 235.1C482.3 236.3 482.5 237.6 482.8 238.8C482.9 239.3 483.4 242.1 483.2 241C483.1 240 483.5 243.1 483.5 243.8C483.6 245.1 483.7 246.4 483.8 247.7C483.9 250.1 483.8 252.5 483.7 255C483.6 255.7 483.6 256.5 483.5 257.2C483.5 257 483.8 255.4 483.6 256.8C483.3 258.2 483.1 259.7 482.7 261.2C482.4 262.3 482 263.4 481.7 264.4C481 266.8 481.9 264.5 481 266.2C480.5 267.2 480 268.2 479.4 269.1C479.1 269.6 476.9 272.8 478 271.3C474.3 275.9 471.6 277.9 466 280.4C443.9 290.5 414.8 282.5 391.9 277.1C381.8 274.7 371.6 272.1 361.7 268.9C347 264.3 340.7 287.3 355.4 292C380.1 299.8 406.1 305.9 431.9 308.3C461.5 311 494.3 301.3 504.7 270.7C509.3 257.2 508.2 242.3 505.2 228.7C501.8 213.7 478.7 220.1 482 235.1Z" fill="#F9D0B5"/>
<path d="M474.6 227.8C476.8 226.4 500.7 209.3 500.7 209.3L509.2 231.6C509.2 231.6 506.8 235.8 497.2 240.7C487.5 245.5 478.4 244.4 478.4 244.4L474.6 227.8Z" fill="#FF5252"/>
<path d="M460 314.1C460.7 320.1 461.2 326.2 461.9 332.2C462.5 337.6 463.3 343.1 463.5 348.6C463.6 353.2 463 358.1 459.6 361.5C456.6 364.5 452.3 365.6 448.2 365.9C443.3 366.3 438.4 365.9 433.5 365.7C427.6 365.4 421.6 365.2 415.7 364.9C403.7 364.4 391.7 363.9 379.7 363.4C373.9 363.1 368.1 362.9 362.3 362.7C357.6 362.5 352.8 362.4 348.1 362.9C339 363.8 330 366.8 324.2 374.3C318.2 382.1 316.4 392.1 314.4 401.4C311.9 413.2 309.3 425 306.8 436.8C304.3 448.6 301.7 460.4 299.2 472.2C297 482.1 295.1 492.1 292.5 501.8C292.1 503.3 291.7 504.9 291.3 506.4C290.6 508.6 294 509.5 294.7 507.3C297.2 498.9 298.9 490.3 300.8 481.8C303.3 470 305.9 458.2 308.4 446.4C310.9 434.5 313.6 422.6 316.1 410.7C317.3 405.2 318.4 399.7 319.7 394.3C320.8 389.6 322.1 385 324.4 380.6C326.6 376.5 329.6 373 333.6 370.7C337.5 368.3 342 367.2 346.5 366.6C356.7 365.2 367.3 366.4 377.6 366.9C389.6 367.4 401.6 367.9 413.6 368.4C419.7 368.7 425.7 368.9 431.8 369.2C436.8 369.4 442 369.9 447 369.6C451.2 369.4 455.7 368.7 459.4 366.4C463.3 364.1 465.8 360.3 466.7 355.9C467.7 351 467.2 346 466.6 341.1C465.9 335.1 465.4 329 464.7 323C464.4 320.1 464.1 317.2 463.8 314.2C463.3 311.9 459.7 311.8 460 314.1Z" fill="white"/>
<path d="M95.8998 591.4C92.5998 590.2 90.8999 586.7 91.9999 583.4L170.8 325.1C171.9 321.8 175.6 319.9 178.9 321.1L187.1 324C190.4 325.2 192.1 328.9 190.9 332.2L104 587.6C102.8 590.9 99.1998 592.6 95.8998 591.4Z" fill="#8A6645"/>
<path d="M504.4 591.4C507.7 590.2 509.4 586.7 508.3 583.4L429.6 325.1C428.5 321.8 424.8 319.9 421.5 321.1L413.3 324C410 325.2 408.3 328.9 409.5 332.2L496.5 587.5C497.5 590.9 501.1 592.6 504.4 591.4Z" fill="#8A6645"/>
<path d="M517.3 334.1H83C79.5 334.1 76.6001 331.2 76.6001 327.7V313.7C76.6001 310.2 79.5 307.3 83 307.3H517.3C520.8 307.3 523.7 310.2 523.7 313.7V327.7C523.6 331.2 520.8 334.1 517.3 334.1Z" fill="#C49C77"/>
<path d="M134.7 557.8C94.8002 552.8 76.8998 578.5 76.7998 578.6C76.7998 578.5 78.7002 580 78.7002 574.5L77.7998 566.4C77.7998 566.4 74.4001 567.4 73.1001 568C69.0001 569.7 65.4 574.5 64.3 574.4C63.3 574.3 59.5 570.9 53.5 569.3C47.6 567.7 40.5999 569.2 39.8999 568.8C39.2999 568.4 39.5001 566.3 38.6001 563.6C37.5001 560.5 34.6001 556.9 34.6001 556.9C34.5001 557 25.5001 574.1 23.6001 577.6C21.7001 581.1 18.5 586.4 18 597.9C17.3 613.3 27.7 607 27.7 607L20.5 600.3H10.2H7.19995C3.29995 600.3 0.199951 604.1 0.199951 608.7C0.199951 613.3 3.29995 617.1 7.19995 617.1H10.2H20.5H181.1L181.2 602.7C181.4 602.6 182.3 563.7 134.7 557.8Z" fill="#110580"/>
<path d="M172.9 623.7H27.8C23.2 623.7 19.3999 619.9 19.3999 615.3C19.3999 610.7 23.2 606.9 27.8 606.9H172.9C177.5 606.9 181.3 610.7 181.3 615.3C181.3 619.9 177.5 623.7 172.9 623.7Z" fill="#110580"/>
<path d="M149.2 578.5C140.3 576.9 130.9 577.5 123 582.2C117.4 585.5 112.9 590.7 110.5 596.8C109.6 599 109.1 601.2 109 603.5C103.6 603.2 97.9 603.2 92.9 605.3C90.3 606.4 88.1001 608.2 87.0001 610.9C86.0001 613.4 86.0002 616.4 87.1002 618.9C88.3002 621.8 91.0002 623.6 94.1002 623.6C95.3002 623.6 95.3002 621.6 94.1002 621.6C89.0002 621.5 87.2 615.7 88.9 611.6C90.9 606.6 97.5002 605.7 102.1 605.5C104.8 605.4 107.4 605.4 110.1 605.6C110.6 605.7 111.1 605.1 111.1 604.6C110.8 599.9 113.2 594.9 116.1 591.1C120.3 585.5 126.5 581.8 133.2 580.4C138.4 579.3 143.7 579.5 148.9 580.5C149.9 580.6 150.4 578.7 149.2 578.5Z" fill="#787CCB"/>
<path d="M163.1 621.6C169.6 623.1 176.5 623.4 183.1 624.6C187 625.3 195.1 627.1 188 630.3C179.1 634.4 167 631.6 157.6 632.1C147.2 632.7 135.8 635.4 128.9 643.8C121.8 652.3 124.5 670.7 138.5 669.1C146.9 668.1 150.5 659.6 145.2 653C144.9 652.7 144.7 652.3 144.4 652C145.2 653.5 146.1 654.9 147 656.4C146.4 654.8 145.4 656.9 147.3 656C149.5 654.9 151.3 653.6 153.6 652.8C158.4 651.2 163.5 650.7 168.5 650.2C178.8 649.2 192 649.3 200.2 642C208.4 634.8 209.6 621.7 200.1 614.9C191 608.4 173.3 609.2 163.1 612.5C159.1 614.2 158.6 620.5 163.1 621.6Z" fill="#110580"/>
<path d="M29.6999 586.5C30.0999 588.9 32.1999 590.7 34.3999 591.2C36.7999 591.7 39.4001 591 41.1001 589.2C41.8001 588.4 40.6 587.3 40 588.1C38.8 589.5 36.6999 590.1 34.8999 589.7C33.0999 589.3 31.6 587.9 31.3 586.1C31 585.1 29.4999 585.5 29.6999 586.5Z" fill="#787CCB"/>
<path d="M51.8999 591.8C51.8999 594.2 54.1 595.9 56.3 596.3C58.9 596.8 61.4999 595.6 63.3999 593.9C64.1999 593.2 63.1 592.1 62.3 592.8C60.8 594.1 58.8 595 56.8 594.8C55.3 594.6 53.5 593.5 53.5 591.8C53.5 590.8 51.8999 590.8 51.8999 591.8Z" fill="#787CCB"/>
<path d="M44.6999 602C43.1999 600.8 41.4 600 39.5 599.8C39.2 599.7 38.7999 600 38.6999 600.3C38.4999 600.6 38.5999 601 38.6999 601.3C38.7999 601.4 38.8 601.5 38.8 601.6C38.7 601.3 38.7999 601.7 38.8999 601.7C38.9999 601.8 39 602 39 602.2C39 602.3 39.1001 602.3 39.1001 602.5V602.6C39.1001 602.7 39.0999 602.9 39.1999 603.1C39.2999 603.8 39.3 604.5 39.3 605.2C39.3 605.3 39.3 605.3 39.3 605.3V605.4V605.5C39.4 605.9 40 606.2 40.3 606.1C40.4 606.1 40.3999 606.1 40.3999 606.1C40.4999 606 40.6999 606 40.8999 605.8C40.9999 605.7 41 605.7 41 605.7C41.1 605.6 41.3 605.5 41.5 605.4C41.6 605.3 41.7 605.3 41.8 605.3C41.9 605.3 41.8999 605.2 41.8999 605.2C42.0999 605.1 42.2999 605.1 42.3999 605C43.1999 604.7 44.0001 604.3 44.6001 603.8C45.0001 603 45.0999 602.3 44.6999 602ZM41.8999 604.9C41.9999 604.9 41.9999 604.9 41.8999 604.9C42.0999 604.8 41.9999 604.9 41.8999 604.9Z" fill="#787CCB"/>
<path d="M361.475 58.597C356.375 43.597 343.275 31.497 327.675 26.597C312.075 21.697 294.375 23.8969 280.075 31.7969C273.075 35.6969 266.775 40.9969 262.875 47.7969C258.975 54.5969 257.675 62.9969 260.575 70.2969C264.075 79.0969 272.775 84.897 281.575 89.097C291.075 93.497 303.975 96.4969 315.975 93.4969C325.875 99.5969 335.875 105.697 345.775 111.797C343.975 104.997 338.475 91.4969 338.275 91.4969L339.575 91.3969C346.775 88.8969 353.275 84.397 357.975 78.597C360.275 75.797 362.175 72.4969 362.775 68.8969C363.375 65.2969 362.575 61.897 361.475 58.597Z" fill="#FCFAF8"/>
<path d="M396.4 211.1C396.4 211.1 392.5 222.5 391.6 226.5C390.6 231.2 390.6 237.2 390.6 237.2L386.7 236.4C386.7 236.4 387.7 230.3 390.2 223.9C391.4 220.5 396.4 211.1 396.4 211.1Z" fill="#4E53BA"/>
<path d="M472.5 218.3C472.5 218.3 474 229.3 474.3 231.7C474.9 236.6 474.7 244.1 474.7 244.1L478.6 244.4C478.6 244.4 477.7 235.1 476 229C475.1 226 472.5 218.3 472.5 218.3Z" fill="#4E53BA"/>
<path d="M503.418 150.688C507.697 148.584 512.094 142.891 511 139L485.211 79.5957C478.943 57.3006 458.348 41 433.973 41C418.153 41 409 48.046 409 48.046C409 48.046 410.592 52.463 418.153 59.9298C425.715 67.5017 436.46 70.5515 445.514 79.5957C451.583 85.5902 450.986 97.2636 450.986 97.2636C450.986 135.649 457.453 136.701 458.149 154.789C458.448 161.204 461.831 160.573 473.969 158.785C490.086 156.472 496.354 154.263 503.418 150.688Z" fill="#140C49"/>
<path d="M346.9 291.7L333.9 290.4C325.7 289.6 319.4 283.5 319.9 276.8L320.1 274.5C320.6 267.9 327.7 263.1 335.9 264L348.9 265.3C357.1 266.2 363.4 272.2 362.9 278.9L362.7 281.2C362.2 287.9 355.1 292.6 346.9 291.7Z" fill="#F9D0B5"/>
<path d="M311.176 73.6969C311.076 74.4969 310.876 75.297 311.176 76.097C311.376 76.797 311.676 77.3969 312.176 77.8969C312.576 78.2969 312.976 78.5969 313.476 78.6969C313.976 78.9969 314.475 79.0969 315.075 78.9969C315.775 78.9969 316.475 78.7969 317.075 78.4969C317.075 78.4969 317.176 78.4969 317.176 78.3969C316.876 78.4969 316.476 78.6969 316.176 78.7969H316.276C315.876 78.8969 315.576 78.8969 315.176 78.8969C315.176 78.8969 315.176 78.8969 315.276 78.8969C315.676 78.7969 315.976 78.7969 316.376 78.7969C316.676 78.6969 317.076 78.4969 317.376 78.3969C317.676 78.1969 317.976 77.8969 318.276 77.6969C318.476 77.3969 318.776 77.0969 318.976 76.7969C319.076 76.4969 319.276 76.0969 319.376 75.7969C319.476 75.3969 319.476 75.0969 319.476 74.6969C319.376 74.2969 319.376 73.997 319.376 73.597C319.276 73.097 318.975 72.5969 318.575 72.1969C318.375 71.8969 318.076 71.5969 317.776 71.3969C317.476 71.0969 317.176 70.8969 316.876 70.8969C316.576 70.6969 316.176 70.597 315.876 70.597C315.476 70.497 315.176 70.497 314.776 70.597C314.376 70.597 314.076 70.6969 313.776 70.8969C313.476 70.9969 313.076 71.1969 312.876 71.3969C312.576 71.5969 312.275 71.8969 312.075 72.1969C311.575 72.6969 311.276 73.1969 311.176 73.6969Z" fill="#D6D7F0"/>
<path d="M301.675 49.6969C303.275 47.1969 307.576 45.7969 310.476 46.0969C311.876 46.1969 314.676 46.9969 315.476 48.2969C316.076 49.1969 316.175 48.1969 315.175 49.1969C314.575 49.7969 313.475 50.1969 312.775 50.5969C308.175 53.6969 303.275 62.3968 310.275 65.8968C312.975 67.2968 316.575 65.5969 316.575 62.2969C316.575 60.7969 316.075 59.7968 316.875 58.4968C317.375 57.6968 318.676 56.9968 319.476 56.4968C321.676 54.8968 323.675 53.2968 324.175 50.4968C324.975 45.4968 320.475 41.5968 316.175 39.9968C311.475 38.1968 306.175 38.7969 302.075 41.6969C299.875 43.2969 295.475 48.2969 299.575 50.2969C300.275 50.6969 301.175 50.4969 301.675 49.6969Z" fill="#D6D7F0"/>
<path fill-rule="evenodd" clip-rule="evenodd" d="M404.987 88.7527C404.797 92.3398 402.636 95.1341 400.157 94.995C397.679 94.8559 395.824 91.8353 396.013 88.2483C396.202 84.6612 398.364 81.8659 400.843 82.005C403.32 82.1451 405.176 85.1657 404.987 88.7527Z" fill="#0D0B6D"/>
<path fill-rule="evenodd" clip-rule="evenodd" d="M435.987 95.7527C435.797 99.3398 433.636 102.134 431.157 101.995C428.679 101.856 426.824 98.8353 427.013 95.2483C427.202 91.6612 429.364 88.8659 431.843 89.005C434.32 89.1451 436.176 92.1657 435.987 95.7527Z" fill="#0D0B6D"/>
<path d="M145.758 217.461L145.145 217.33C143.55 217.002 142.078 217.921 141.465 219.498L137.049 232.636C136.926 232.899 136.926 232.965 136.926 233.227C138.398 234.541 140.3 235.461 142.201 235.724C143.918 236.052 145.697 235.986 147.353 235.395C147.353 235.264 147.475 235.067 147.475 234.935L148.518 221.009C148.395 219.301 147.353 217.856 145.758 217.461Z" fill="#D7D7E6"/>
<path d="M146.019 197.482C146.326 196.891 146.94 196.694 147.492 197.022C147.737 197.154 147.798 197.285 147.921 197.482C148.534 198.927 149.515 200.767 150.129 201.949C151.355 204.971 151.846 208.387 151.294 211.606C150.558 214.102 149.516 216.467 148.044 218.438C147.921 218.7 147.737 218.766 147.492 218.898C146.449 219.226 145.406 219.226 144.364 219.029C142.34 218.438 142.033 217.124 142.033 217.124C141.42 214.562 141.113 211.934 141.113 209.372C141.358 206.81 142.156 204.314 143.444 202.081C144.425 200.504 145.283 199.059 146.019 197.482Z" fill="#C7645D"/>
<path d="M129.367 285.659L136.849 234.157C136.849 233.894 136.972 233.566 137.094 233.369C139.916 235.865 143.841 236.653 147.275 235.536C147.275 235.865 147.153 236.193 147.153 236.456L135.745 287.169C135.439 289.009 133.721 290.191 132.065 289.731C130.348 289.272 129.06 287.432 129.367 285.659Z" fill="#2B31BA"/>
<path d="M125.19 193L110.08 194.18L116.738 292.002L131.848 290.822L125.19 193Z" fill="#DADAED"/>
<path d="M116.022 206.945L110.884 207.346L110.959 208.46L116.098 208.059L116.022 206.945Z" fill="#989BD7"/>
<path d="M116.393 218.355L111.253 218.74L111.326 219.855L116.466 219.469L116.393 218.355Z" fill="#989BD7"/>
<path d="M117.073 229.418L111.933 229.803L112.006 230.917L117.145 230.532L117.073 229.418Z" fill="#989BD7"/>
<path d="M118.25 239.775L113.112 240.176L113.187 241.29L118.326 240.888L118.25 239.775Z" fill="#989BD7"/>
<path d="M119.011 250.695L113.873 251.097L113.948 252.21L119.087 251.809L119.011 250.695Z" fill="#989BD7"/>
<path d="M109.605 226.455L100 228.256L112.635 305.579L122.241 303.779L109.605 226.455Z" fill="#FFADB2"/>
<path d="M109.7 226.594L100.009 228.368L101.481 213.587L103.567 213.259L109.7 226.594Z" fill="#EBDBCD"/>
<path d="M102.104 220.16L103.515 219.175L104.618 219.241L106.029 218.452L103.576 213L101.491 213.328L101 219.241L102.104 220.16Z" fill="#FF7A82"/>
<path d="M102.924 254.181H144.935C145.978 254.181 146.714 255.101 146.714 256.086C146.714 256.218 146.714 256.218 146.714 256.349L141.133 304.369C140.887 306.603 139.109 308.31 137.024 308.31H110.59C108.505 308.31 106.726 306.603 106.481 304.369L101.022 256.349C100.9 255.364 101.636 254.313 102.617 254.181C102.74 254.247 102.801 254.247 102.924 254.181Z" fill="#FF7A82"/>
<path d="M187.762 162.367H190.662V166.463H187.762V172H182.682V166.463H172.188L171.959 163.264L182.629 146.406H187.762V162.367ZM177.021 162.367H182.682V153.332L182.348 153.912L177.021 162.367ZM210.631 161.418C210.631 164.957 209.898 167.664 208.434 169.539C206.969 171.414 204.824 172.352 202 172.352C199.211 172.352 197.078 171.432 195.602 169.592C194.125 167.752 193.369 165.115 193.334 161.682V156.971C193.334 153.396 194.072 150.684 195.549 148.832C197.037 146.98 199.176 146.055 201.965 146.055C204.754 146.055 206.887 146.975 208.363 148.814C209.84 150.643 210.596 153.273 210.631 156.707V161.418ZM205.551 156.25C205.551 154.129 205.258 152.588 204.672 151.627C204.098 150.654 203.195 150.168 201.965 150.168C200.77 150.168 199.885 150.631 199.311 151.557C198.748 152.471 198.449 153.906 198.414 155.863V162.086C198.414 164.172 198.695 165.725 199.258 166.744C199.832 167.752 200.746 168.256 202 168.256C203.242 168.256 204.139 167.77 204.689 166.797C205.24 165.824 205.527 164.336 205.551 162.332V156.25ZM229.105 162.367H232.006V166.463H229.105V172H224.025V166.463H213.531L213.303 163.264L223.973 146.406H229.105V162.367ZM218.365 162.367H224.025V153.332L223.691 153.912L218.365 162.367Z" fill="#2962FF" fill-opacity="0.6"/>
<path d="M187.762 162.367H186.762V163.367H187.762V162.367ZM190.662 162.367H191.662V161.367H190.662V162.367ZM190.662 166.463V167.463H191.662V166.463H190.662ZM187.762 166.463V165.463H186.762V166.463H187.762ZM187.762 172V173H188.762V172H187.762ZM182.682 172H181.682V173H182.682V172ZM182.682 166.463H183.682V165.463H182.682V166.463ZM172.188 166.463L171.19 166.534L171.256 167.463H172.188V166.463ZM171.959 163.264L171.114 162.729L170.938 163.007L170.962 163.335L171.959 163.264ZM182.629 146.406V145.406H182.078L181.784 145.871L182.629 146.406ZM187.762 146.406H188.762V145.406H187.762V146.406ZM177.021 162.367L176.175 161.834L175.21 163.367H177.021V162.367ZM182.682 162.367V163.367H183.682V162.367H182.682ZM182.682 153.332H183.682V149.591L181.815 152.833L182.682 153.332ZM182.348 153.912L183.194 154.445L183.204 154.428L183.214 154.411L182.348 153.912ZM187.762 163.367H190.662V161.367H187.762V163.367ZM189.662 162.367V166.463H191.662V162.367H189.662ZM190.662 165.463H187.762V167.463H190.662V165.463ZM186.762 166.463V172H188.762V166.463H186.762ZM187.762 171H182.682V173H187.762V171ZM183.682 172V166.463H181.682V172H183.682ZM182.682 165.463H172.188V167.463H182.682V165.463ZM173.185 166.392L172.956 163.192L170.962 163.335L171.19 166.534L173.185 166.392ZM172.804 163.798L183.474 146.941L181.784 145.871L171.114 162.729L172.804 163.798ZM182.629 147.406H187.762V145.406H182.629V147.406ZM186.762 146.406V162.367H188.762V146.406H186.762ZM177.021 163.367H182.682V161.367H177.021V163.367ZM183.682 162.367V153.332H181.682V162.367H183.682ZM181.815 152.833L181.481 153.413L183.214 154.411L183.548 153.831L181.815 152.833ZM181.502 153.379L176.175 161.834L177.868 162.9L183.194 154.445L181.502 153.379ZM193.334 161.682L192.334 161.682L192.334 161.692L193.334 161.682ZM195.549 148.832L194.769 148.206L194.767 148.209L195.549 148.832ZM208.363 148.814L207.583 149.44L207.585 149.443L208.363 148.814ZM210.631 156.707L211.631 156.707L211.631 156.697L210.631 156.707ZM204.672 151.627L203.811 152.135L203.814 152.141L203.818 152.148L204.672 151.627ZM199.311 151.557L198.461 151.03L198.459 151.033L199.311 151.557ZM198.414 155.863L197.414 155.845L197.414 155.854V155.863H198.414ZM199.258 166.744L198.382 167.227L198.389 167.239L199.258 166.744ZM205.551 162.332L206.551 162.344V162.332H205.551ZM209.631 161.418C209.631 164.838 208.92 167.292 207.646 168.923L209.222 170.155C210.877 168.036 211.631 165.076 211.631 161.418H209.631ZM207.646 168.923C206.407 170.509 204.581 171.352 202 171.352V173.352C205.068 173.352 207.531 172.319 209.222 170.155L207.646 168.923ZM202 171.352C199.453 171.352 197.633 170.525 196.381 168.966L194.822 170.218C196.524 172.338 198.969 173.352 202 173.352V171.352ZM196.381 168.966C195.096 167.365 194.368 164.98 194.334 161.671L192.334 161.692C192.37 165.251 193.154 168.139 194.822 170.218L196.381 168.966ZM194.334 161.682V156.971H192.334V161.682H194.334ZM194.334 156.971C194.334 153.513 195.051 151.06 196.331 149.456L194.767 148.209C193.093 150.308 192.334 153.28 192.334 156.971H194.334ZM196.328 149.459C197.593 147.886 199.42 147.055 201.965 147.055V145.055C198.932 145.055 196.482 146.075 194.769 148.206L196.328 149.459ZM201.965 147.055C204.512 147.055 206.332 147.881 207.583 149.44L209.143 148.189C207.441 146.068 204.995 145.055 201.965 145.055V147.055ZM207.585 149.443C208.868 151.031 209.597 153.408 209.631 156.717L211.631 156.697C211.594 153.138 210.812 150.254 209.141 148.186L207.585 149.443ZM209.631 156.707V161.418H211.631V156.707H209.631ZM206.551 156.25C206.551 154.082 206.26 152.31 205.526 151.106L203.818 152.148C204.256 152.866 204.551 154.176 204.551 156.25H206.551ZM205.533 151.119C204.76 149.81 203.511 149.168 201.965 149.168V151.168C202.88 151.168 203.435 151.499 203.811 152.135L205.533 151.119ZM201.965 149.168C200.464 149.168 199.238 149.777 198.461 151.03L200.16 152.084C200.532 151.485 201.075 151.168 201.965 151.168V149.168ZM198.459 151.033C197.753 152.179 197.45 153.835 197.414 155.845L199.414 155.881C199.448 153.977 199.743 152.762 200.162 152.081L198.459 151.033ZM197.414 155.863V162.086H199.414V155.863H197.414ZM197.414 162.086C197.414 164.226 197.697 165.984 198.382 167.227L200.133 166.261C199.694 165.465 199.414 164.117 199.414 162.086H197.414ZM198.389 167.239C199.158 168.589 200.422 169.256 202 169.256V167.256C201.07 167.256 200.506 166.915 200.127 166.249L198.389 167.239ZM202 169.256C203.554 169.256 204.809 168.616 205.56 167.29L203.819 166.304C203.469 166.923 202.931 167.256 202 167.256V169.256ZM205.56 167.29C206.236 166.095 206.527 164.402 206.551 162.344L204.551 162.32C204.528 164.27 204.245 165.553 203.819 166.304L205.56 167.29ZM206.551 162.332V156.25H204.551V162.332H206.551ZM229.105 162.367H228.105V163.367H229.105V162.367ZM232.006 162.367H233.006V161.367H232.006V162.367ZM232.006 166.463V167.463H233.006V166.463H232.006ZM229.105 166.463V165.463H228.105V166.463H229.105ZM229.105 172V173H230.105V172H229.105ZM224.025 172H223.025V173H224.025V172ZM224.025 166.463H225.025V165.463H224.025V166.463ZM213.531 166.463L212.534 166.534L212.6 167.463H213.531V166.463ZM213.303 163.264L212.458 162.729L212.282 163.007L212.305 163.335L213.303 163.264ZM223.973 146.406V145.406H223.422L223.128 145.871L223.973 146.406ZM229.105 146.406H230.105V145.406H229.105V146.406ZM218.365 162.367L217.519 161.834L216.553 163.367H218.365V162.367ZM224.025 162.367V163.367H225.025V162.367H224.025ZM224.025 153.332H225.025V149.591L223.159 152.833L224.025 153.332ZM223.691 153.912L224.538 154.445L224.548 154.428L224.558 154.411L223.691 153.912ZM229.105 163.367H232.006V161.367H229.105V163.367ZM231.006 162.367V166.463H233.006V162.367H231.006ZM232.006 165.463H229.105V167.463H232.006V165.463ZM228.105 166.463V172H230.105V166.463H228.105ZM229.105 171H224.025V173H229.105V171ZM225.025 172V166.463H223.025V172H225.025ZM224.025 165.463H213.531V167.463H224.025V165.463ZM214.529 166.392L214.3 163.192L212.305 163.335L212.534 166.534L214.529 166.392ZM214.148 163.798L224.818 146.941L223.128 145.871L212.458 162.729L214.148 163.798ZM223.973 147.406H229.105V145.406H223.973V147.406ZM228.105 146.406V162.367H230.105V146.406H228.105ZM218.365 163.367H224.025V161.367H218.365V163.367ZM225.025 162.367V153.332H223.025V162.367H225.025ZM223.159 152.833L222.825 153.413L224.558 154.411L224.892 153.831L223.159 152.833ZM222.845 153.379L217.519 161.834L219.211 162.9L224.538 154.445L222.845 153.379Z" fill="black" fill-opacity="0.5"/>
</svg>
